<svg preserveAspectRatio="none" width="100%" height="100%" overflow="visible" style="display: block;" viewBox="0 0 87 120" fill="none" xmlns="http://www.w3.org/2000/svg">
<g id="Cacrep_cm_BW 1" clip-path="url(#clip0_0_10)">
<g id="Vector">
</g>
<g id="Vector_2">
</g>
<g id="Vector_3">
</g>
<g id="Vector_4">
</g>
<path id="Vector_5" d="M4.97257 25.6132H5.38761L6.28156 26.9166H4.97257V27.8781H6.94404L7.83798 29.1815H4.97257V30.143H8.50046L9.3944 31.4464H4.96459V32.4079H10.0569L10.9508 33.7113H4.96459V34.6728H11.6133L12.5072 35.9762H4.9566V36.9378H13.1697L14.0637 38.2411H4.9566V39.2027H14.7261L15.6201 40.506H4.9566V41.4676H16.2826L17.1765 42.7709H4.94862V43.7324H17.839L18.7329 45.0358H4.94862V45.9973H19.3954L20.2894 47.3007H4.94064V48.2623H20.9518L21.8458 49.5656H4.94064V50.5272H22.5083L23.4022 51.8305H4.94064V52.7921H24.0647L24.9586 54.0954H4.93266V55.057H25.6211L26.515 56.3603H4.93266V57.3218H27.1775L28.0715 58.6252H4.92468V59.5868H28.7339L29.6279 60.8901H4.92468V61.8517H30.2904H33.8741H81.1894V60.8901H34.6803L35.7738 59.5868H81.1894V58.6252H36.5799L37.6734 57.3218H81.1973V56.3603H38.4795L39.573 55.057H81.1973V54.0954H40.3792L41.4727 52.7921H81.1973V51.8305H42.2788L43.3723 50.5272H81.2053V49.5656H44.1784L45.2719 48.2623H81.2053V47.3007H46.0781L47.1716 45.9973H81.2053V45.0358H47.9777L49.0712 43.7324H81.2133V42.7709H49.8773L50.9708 41.4676H81.2133V40.506H51.777L52.8705 39.2027H81.2213V38.2411H53.6766L54.7701 36.9378H81.2213V35.9762H55.5762L56.6697 34.6728H81.2213V33.7113H57.4759L58.5694 32.4079H81.2293V31.4464H59.3755L60.469 30.143H81.2293V29.1815H61.2751L62.3686 27.8781H81.2293V26.9166H63.1748L64.2683 25.6132H81.2372V24.6517H65.0744L66.1679 23.3483H81.2372V22.3868H66.974L68.0675 21.0834H81.2372V20.1219H68.8737L69.9672 18.8185H81.2452V17.857H70.7733L71.8668 16.5536H81.2452V15.5921H72.6729L73.7664 14.2887H81.2532V13.3272H74.5806L75.674 12.0238H81.2612V11.0623H76.4802L77.5737 9.75894H81.2612V8.79735H78.3798L79.4733 7.49404H81.2692V6.53245H80.2795L81.2692 5.35629V4.21987H78.8747L78.8108 4.26755H4.97257V5.22914H77.3183L75.3308 6.53245H4.97257V7.49404H73.8622L71.8748 8.79735H4.97257V9.75894H70.3982L68.4107 11.0623H4.97257V12.0238H66.9421L64.9547 13.3272H4.97257V14.2887H63.4861L61.4986 15.5921H4.97257V16.5536H60.022L58.0346 17.857H4.97257V18.8185H56.566L54.5785 20.1219H4.97257V21.0834H53.1099L51.1225 22.3868H5.47541L4.94064 22.1404V24.9536L4.98055 25.0172V25.6132H4.97257ZM33.8262 33.7272H30.6096L27.7203 32.4238H35.8137L33.8262 33.7272ZM37.2823 31.4543H25.5812L22.6918 30.151H39.2697L37.2823 31.4543ZM40.7463 29.1894H20.5528L17.6634 27.8861H42.7338L40.7463 29.1894ZM44.2024 26.9166H15.5243L12.635 25.6132H46.1898L44.2024 26.9166ZM49.6459 23.3483L47.6584 24.6517H10.4959L7.60651 23.3483H49.6459Z" fill="var(--fill-0, white)"/>
<path id="Vector_6" d="M74.804 80.6225C74.804 80.6225 74.6284 80.7656 74.6923 80.9801C74.7322 81.1232 74.8918 81.1709 74.8918 81.1709C77.7652 80.6066 81.796 79.5973 81.772 74.4874C81.7481 68.8927 75.6581 69.0517 74.1176 69.004C71.9865 68.9404 69.8075 68.996 67.6605 69.004H67.1736V69.5523C67.3252 69.5762 67.4849 69.6 67.6605 69.6318C68.4826 69.7589 69.4483 69.9815 69.4483 70.6013C69.4483 70.6013 69.592 88.4265 69.2727 89.0066C68.9535 89.5868 68.4267 89.6106 68.4267 89.6106C68.4267 89.6106 68.0436 89.7457 67.6605 89.7854C67.3891 89.8252 67.1097 89.8411 66.9501 89.8728C66.9501 89.8728 66.7027 89.9205 66.6947 90.1351C66.6867 90.3497 66.9501 90.4212 66.9501 90.4212C67.1816 90.4212 67.429 90.4053 67.6605 90.3974C70.5897 90.3179 74.0218 90.3258 76.8553 90.4212C76.8553 90.4212 77.0788 90.3735 77.0708 90.1907C77.0628 90.008 76.8553 89.8728 76.8553 89.8728C76.3844 89.7695 74.9317 89.6424 74.6205 89.4993C73.9819 89.1973 73.8223 88.7682 73.6228 87.6477C73.519 87.0675 73.4631 86.1139 73.4631 84.7868V69.6556C75.1552 69.7589 77.6295 71.2053 77.6295 75.449C77.6295 76.8874 77.5417 78.0238 77.0549 78.8742C76.568 79.7086 75.8177 80.2967 74.7961 80.6225H74.804Z" fill="var(--fill-0, white)"/>
<path id="Vector_7" d="M61.8578 90.3974C62.9034 90.4212 65.5852 90.453 66.4552 90.4927L67.6605 86.5272L68.3788 84.1907C68.3788 84.1907 68.3788 84.0556 68.275 84.0238C68.1633 83.9841 68.0436 84.1351 68.0436 84.1351L67.6605 84.6517L64.6434 88.8397L60.2774 88.8159V85.5099L60.2295 80.0424H62.8236L64.1405 84.5007C64.1405 84.5007 64.2762 84.7868 64.4838 84.8265C64.7392 84.8662 64.811 84.5007 64.811 84.5007V81.155C64.811 80.4874 64.827 79.5417 64.8509 78.3497C64.8828 77.1497 64.8988 75.2503 64.8988 74.694C64.8988 74.694 64.803 74.4318 64.5556 74.4397C64.3161 74.4397 64.2044 74.694 64.2044 74.694L62.8156 78.6993H60.2375V70.7046L65.0105 70.7205L66.7186 74.6543C66.7186 74.6543 66.8064 74.8927 66.9341 74.8609C67.0778 74.8212 67.0459 74.5589 67.0459 74.5589L66.3195 68.9881L53.7245 68.9722V69.5205C54.5945 69.5841 56.0472 70.2676 56.0472 71.0305V88.8318L55.6401 89.0464C54.395 86.9404 52.7028 83.547 51.4497 79.2556C52.6709 78.5642 54.5147 77.4914 54.4428 74.2252C54.355 70.0609 50.7234 68.9324 49.7496 68.8848C49.6778 68.8768 49.4543 68.9007 49.0792 68.9166C48.8956 68.9166 48.6482 68.9166 48.3528 68.9324C46.3494 68.9722 40.6106 68.9483 39.2059 68.9483C35.3108 67.6371 30.873 69.8543 28.9894 75.4808C28.4227 77.1735 28.0795 79.1921 28.0635 81.5126C28.0475 83.555 28.3907 85.2 28.9894 86.5113C30.6655 90.2066 34.3051 91.2 37.3142 90.6278C38.711 90.5404 40.7783 90.4291 40.8022 90.4212C41.5046 90.4053 42.0713 90.3894 42.4863 90.3815C42.9572 90.3735 45.3517 90.3656 45.7588 90.3656C46.1659 90.3656 46.6049 90.3656 47.0678 90.3656C47.3871 90.3656 47.8101 90.3815 48.3449 90.3974C48.6083 90.4053 48.9116 90.4132 49.2308 90.4212C49.2308 90.4212 49.4942 90.3656 49.4942 90.1669C49.4942 89.9682 49.2308 89.8728 49.2308 89.8728C48.9435 89.8411 48.6402 89.8172 48.3449 89.7775C47.3871 89.6503 46.5011 89.4278 46.5011 88.7603L46.533 80.5272C47.2434 80.8053 47.5387 81.2344 48.3449 82.7603C48.8078 83.6424 49.4383 84.8742 50.4041 86.6543C52.1282 89.8172 54.2114 90.7073 56.9411 91.7324C56.9411 91.7324 57.2604 91.8278 57.3083 91.7324C57.404 91.5497 57.1805 91.3192 57.1805 91.3192C57.0608 91.2238 56.8693 90.9536 56.4782 90.3735C57.005 90.3735 57.6674 90.3735 58.4337 90.3735C59.6708 90.3735 60.8042 90.3894 61.8498 90.4053L61.8578 90.3974ZM42.3905 88.8715C42.3905 89.555 41.6323 89.7457 40.8022 89.8411C40.7783 89.8411 40.3313 89.9682 40.012 89.5788C40.2355 88.7603 40.443 87.8861 40.6186 86.9563C40.6825 86.6305 40.7463 86.3126 40.8022 85.9709C40.9219 85.3192 41.0097 84.6358 41.1055 83.9205L40.8341 83.7377C40.8261 83.7775 40.8182 83.8093 40.8022 83.849C40.2595 86.0106 39.6928 87.6795 38.9664 88.5378C35.6061 92.5113 32.7088 86.1457 32.3017 79.8517C31.9027 73.7086 35.215 65.9762 38.1762 70.9669C38.8228 72.0477 39.5251 73.8914 40.0439 75.6954C40.0439 75.6954 40.2355 75.9815 40.4111 75.9576C40.5867 75.9338 40.6745 75.6477 40.6745 75.6477L40.5308 69.5444C40.9618 69.6715 41.5844 69.8622 41.7839 69.9815C42.0394 70.1324 42.3905 70.196 42.3905 70.5139V88.8636V88.8715ZM49.5182 78.6278C49.1989 79.0411 48.8078 79.2715 48.3528 79.3987C47.8261 79.5576 47.2274 79.6053 46.541 79.6689V69.5205C47.3551 69.5603 47.8819 69.7748 48.3528 70.1483C48.6083 70.3709 48.8557 70.6331 49.1031 70.9589C49.8055 71.8569 50.1567 73.0729 50.1567 74.6066C50.1567 76.1404 50.2046 77.7616 49.5182 78.6278Z" fill="var(--fill-0, white)"/>
<path id="Vector_8" d="M14.9496 90.2702L14.782 90.3815C16.9051 90.3099 17.8709 90.3656 20.002 90.4291H20.0579C20.0579 90.4291 20.2654 90.3576 20.2654 90.1589C20.2654 89.9603 20.0579 89.8808 20.0579 89.8808C19.3316 89.849 18.7968 89.6742 18.4456 89.3642C18.1104 89.0543 17.9348 88.5695 17.9348 87.9179C17.9348 85.955 18.286 85.3271 18.8128 83.3404H22.5961L23.6656 88.2358C23.7694 88.6013 23.7215 89.0305 23.5539 89.1815C23.2905 89.4993 22.2528 89.8252 21.7899 89.8887C21.7899 89.8887 21.5664 90 21.5664 90.1589C21.5664 90.3179 21.7979 90.4371 21.7979 90.4371C22.5641 90.4053 25.6929 90.3894 26.0761 90.3815C26.4512 90.3815 26.8024 90.3815 27.1217 90.3815C27.4649 90.3815 27.832 90.3815 28.2231 90.3974C28.4227 90.3974 28.6861 90.4132 28.9814 90.4212C29.2448 90.4291 29.5561 90.4371 29.8993 90.445C29.8993 90.445 30.0828 90.3735 30.1068 90.1907C30.1307 90.008 29.9072 89.8967 29.9072 89.8967C29.5481 89.8728 29.2448 89.7695 28.9814 89.5947C28.7978 89.4676 28.6222 89.2927 28.4785 89.094C28.1353 88.5934 27.7761 87.5921 27.4409 86.0742L23.6496 68.8371H20.6246L20.6086 68.845C19.8424 72.302 18.2939 79.0013 17.0967 84.0477C16.5539 86.1219 16.0032 87.7272 15.3008 88.5616C11.9485 92.5351 9.05119 86.1695 8.64413 79.8755C8.23707 73.7324 11.5495 66 14.5186 70.9907C15.1572 72.0715 15.8595 73.9152 16.3783 75.7192C16.3783 75.7192 16.538 75.9973 16.7216 75.9656C16.9211 75.9258 17.0009 75.6715 17.0009 75.6715L16.8652 69.5523C11.5734 66.5483 4.48569 70.6411 4.39789 81.5285C4.32605 90.1748 10.7832 91.804 14.9496 90.294V90.2702ZM20.6326 74.5987L20.8401 73.645L22.2848 82.1007H18.9724L20.6246 74.5987H20.6326Z" fill="var(--fill-0, white)"/>
<path id="Vector_9" d="M72.657 106.148C72.657 104.742 71.8109 104.074 70.6456 104.074C70.3343 104.074 70.1507 104.098 70.047 104.114V108.445C70.1427 108.469 70.3263 108.469 70.454 108.469C71.7151 108.493 72.649 107.793 72.649 106.156L72.657 106.148Z" fill="var(--fill-0, white)"/>
<path id="Vector_10" d="M4.40587 116.003H82.5223V96.596H4.40587V116.003ZM68.0995 102.731C68.73 102.636 69.5601 102.58 70.4221 102.58C71.8189 102.58 72.6969 102.803 73.4152 103.303C74.2134 103.852 74.7322 104.758 74.7322 106.093C74.7322 107.571 74.1735 108.525 73.4551 109.073C72.657 109.701 71.4677 109.979 70.039 109.979C69.0972 109.979 68.4746 109.915 68.0915 109.852V102.739L68.0995 102.731ZM62.1292 102.636H66.8623V104.217H64.0847V105.393H66.7027V106.967H64.0847V108.302H67.0139V109.891H62.1292V102.636ZM55.5204 102.636H61.2273V104.265H59.3356V109.899H57.3801V104.265H55.5204V102.636ZM52.6709 102.636H54.6264V109.891H52.6709V102.636ZM44.9926 102.731C45.6231 102.636 46.4532 102.58 47.3152 102.58C48.712 102.58 49.582 102.803 50.3083 103.303C51.1065 103.852 51.6253 104.758 51.6253 106.093C51.6253 107.571 51.0666 108.525 50.3483 109.073C49.5501 109.701 48.3608 109.979 46.9321 109.979C45.9903 109.979 45.3677 109.915 44.9846 109.852V102.739L44.9926 102.731ZM39.0223 102.636H43.7554V104.217H40.9778V105.393H43.5958V106.967H40.9778V108.302H43.9071V109.891H39.0223V102.636ZM32.3496 102.731C32.9004 102.644 33.7305 102.58 34.7042 102.58C35.8217 102.58 36.6198 102.731 37.1706 103.136C37.6335 103.494 37.8969 104.011 37.8969 104.718C37.8969 105.624 37.2184 106.268 36.6438 106.474V106.514C37.1306 106.721 37.3861 107.181 37.5696 107.809C37.7931 108.548 38.0326 109.605 38.1762 109.883H36.1728C36.0611 109.669 35.8775 109.105 35.662 108.215C35.4705 107.34 35.1991 107.158 34.5925 107.158H34.2812V109.883H32.3416V102.723L32.3496 102.731ZM29.596 102.517C30.442 102.517 31.1205 102.676 31.4238 102.842L31.0486 104.368C30.7214 104.241 30.2824 104.106 29.6997 104.106C28.5743 104.106 27.6006 104.766 27.6006 106.252C27.6006 107.579 28.3907 108.397 29.7317 108.397C30.2106 108.397 30.7373 108.302 31.0406 108.183L31.312 109.709C31.0327 109.836 30.3462 110.011 29.4762 110.011C26.7545 110.011 25.5493 108.31 25.5493 106.379C25.5493 103.82 27.4329 102.517 29.6039 102.517H29.596ZM23.4421 102.517C24.2882 102.517 24.9666 102.676 25.2699 102.842L24.8948 104.368C24.5675 104.241 24.1285 104.106 23.5459 104.106C22.4205 104.106 21.4467 104.766 21.4467 106.252C21.4467 107.579 22.2369 108.397 23.5778 108.397C24.0567 108.397 24.5835 108.302 24.8868 108.183L25.1582 109.709C24.8788 109.836 24.1924 110.011 23.3224 110.011C20.6006 110.011 19.3954 108.31 19.3954 106.379C19.3954 103.82 21.2791 102.517 23.4501 102.517H23.4421ZM14.3111 102.636H16.9051L19.0761 109.891H16.969L16.5061 108.215H14.6224L14.2153 109.891H12.196L14.3191 102.636H14.3111Z" fill="var(--fill-0, white)"/>
<path id="Vector_11" d="M15.8994 105.465C15.7877 105.06 15.652 104.464 15.5403 104.034H15.5163C15.4046 104.464 15.3008 105.068 15.1891 105.481L14.8778 106.776H16.2267L15.8915 105.473L15.8994 105.465Z" fill="var(--fill-0, white)"/>
<path id="Vector_12" d="M49.5581 106.148C49.5581 104.742 48.712 104.074 47.5467 104.074C47.2354 104.074 47.0518 104.098 46.9561 104.114V108.445C47.0518 108.469 47.2354 108.469 47.3631 108.469C48.6242 108.493 49.5581 107.793 49.5581 106.156V106.148Z" fill="var(--fill-0, white)"/>
<path id="Vector_13" d="M35.9573 104.877C35.9573 104.328 35.5982 104.026 34.9517 104.019C34.5845 104.019 34.3929 104.042 34.2892 104.058V105.783H34.8C35.5343 105.783 35.9573 105.417 35.9573 104.877Z" fill="var(--fill-0, white)"/>
<path id="Vector_14" d="M0.367155 0.413245V119.889H86.553V0.413245H0.367155ZM1.35688 118.903V1.39867H85.5713V118.911H1.35688V118.903Z" fill="var(--fill-0, white)"/>
</g>
<defs>
<clipPath id="clip0_0_10">
<rect width="87" height="120" fill="white"/>
</clipPath>
</defs>
</svg>
