<svg preserveAspectRatio="none" width="100%" height="100%" overflow="visible" style="display: block;" viewBox="0 0 73 120.044" fill="none" xmlns="http://www.w3.org/2000/svg">
<g id="Group">
<path id="Vector" d="M39.2053 54.1258C39.009 54.1039 38.289 54.1039 38.0926 54.1039C38.0272 54.1039 38.0054 54.1258 38.0054 54.2133V55.0447C38.0054 56.1604 38.0054 57.9325 38.0272 58.1513C38.0708 58.8514 38.0708 59.0483 38.5072 59.2671C38.8999 59.464 39.5108 59.4859 39.7726 59.4859C40.558 59.4859 41.8016 59.0702 41.8016 57.4293C41.8016 56.5542 41.5179 55.3072 40.4053 54.5415C39.9035 54.2133 39.5544 54.1695 39.2053 54.1258Z" fill="var(--fill-0, white)"/>
<path id="Vector_2" d="M38.0927 53.6445C38.1799 53.6664 38.4417 53.7101 38.9653 53.7101C39.7726 53.7101 39.9689 53.6882 40.2744 53.3382C40.5798 52.9882 40.798 52.4631 40.798 51.8724C40.798 50.6691 40.2525 49.4002 38.8563 49.4002C38.7035 49.4002 38.3981 49.4221 38.1581 49.4658C38.0272 49.4877 37.9836 49.5315 37.9836 49.619V53.4913C38.0054 53.5789 38.0272 53.6226 38.0927 53.6445Z" fill="var(--fill-0, white)"/>
<path id="Vector_3" d="M16.0356 55.1541H18.7845C18.85 55.1541 18.85 55.1103 18.85 55.0447L17.4755 51.1504C17.41 50.9316 17.3228 50.9316 17.2573 51.1504L15.9919 55.0447C15.9701 55.1103 15.9919 55.1541 16.0356 55.1541Z" fill="var(--fill-0, white)"/>
<path id="Vector_4" d="M72.9564 70.031L72.8691 7.17593C72.8691 7.04467 72.8691 6.93528 72.8691 6.82589C72.8691 6.7165 72.8473 6.58523 72.8473 6.47584C72.8473 6.41021 72.8255 6.36645 72.8255 6.30082C72.8255 6.23519 72.8036 6.16955 72.8036 6.1258C72.7818 6.03829 72.7818 5.95077 72.76 5.86326C72.76 5.84139 72.76 5.79763 72.7382 5.77575C72.7164 5.68824 72.6946 5.57885 72.6727 5.49134C72.6727 5.46946 72.6727 5.44758 72.6509 5.42571C72.6291 5.33819 72.6073 5.22881 72.5637 5.14129C72.5637 5.11942 72.5637 5.11942 72.5418 5.09754C72.4764 4.87876 72.3891 4.65998 72.3018 4.4412C72.1709 4.11304 72.0182 3.80675 71.8437 3.52233C71.5382 3.04102 71.1892 2.58159 70.7965 2.18778C70.7092 2.10027 70.6437 2.03464 70.5565 1.94713C70.4692 1.88149 70.3819 1.79398 70.2947 1.72835C70.2074 1.66272 70.142 1.59708 70.0547 1.53145L70.0329 1.50957C69.9456 1.44394 69.8802 1.40018 69.7929 1.33455C69.7711 1.33455 69.7711 1.31267 69.7493 1.31267C69.662 1.26892 69.5965 1.20328 69.5093 1.15953C69.4874 1.15953 69.4874 1.13765 69.4656 1.13765C69.3784 1.09389 69.3129 1.05014 69.2256 1.00638C69.182 0.91887 69.1602 0.91887 69.1384 0.896992C69.0511 0.853236 68.9856 0.80948 68.8984 0.765725C68.8766 0.743847 68.8547 0.743847 68.8329 0.721969C68.7457 0.678213 68.6802 0.656335 68.5929 0.61258C68.5711 0.590702 68.5493 0.590702 68.5057 0.568824C68.4402 0.546946 68.353 0.50319 68.2875 0.481313C68.2439 0.459435 68.2221 0.459435 68.1784 0.437557C68.113 0.415679 68.0257 0.393801 67.9602 0.371923C67.9166 0.350046 67.8948 0.350046 67.8512 0.328168C67.7857 0.30629 67.7203 0.284412 67.633 0.262534C67.5894 0.240656 67.5457 0.240656 67.5021 0.218778C67.4366 0.196901 67.3712 0.196901 67.3057 0.175023C67.2621 0.175023 67.2185 0.153145 67.153 0.153145C67.0876 0.131267 67.0221 0.131267 66.9567 0.109389C66.913 0.109389 66.8476 0.0875114 66.8039 0.0875114C66.7385 0.0875114 66.673 0.0656335 66.6076 0.0656335C66.564 0.0656335 66.4985 0.0437557 66.4549 0.0437557C66.3894 0.0437557 66.324 0.0437557 66.2585 0.0218778C66.1931 0.0218778 66.1494 0.0218778 66.084 0C66.0185 0 65.9531 0 65.8876 0C65.8222 0 65.7785 0 65.7131 0L33.2711 0.0875114L20.1808 0.109389L7.11237 0.131267C6.1306 0.131267 5.19247 0.328168 4.3416 0.700091C4.01435 0.831358 3.70891 0.984503 3.42528 1.1814C3.22893 1.29079 3.03258 1.42206 2.85804 1.5752C2.13808 2.12215 1.50538 2.80036 1.0254 3.58797C0.763598 4.00365 0.567244 4.4412 0.392708 4.92252C0.261805 5.31632 0.15272 5.732 0.0872684 6.14767C0.0872684 6.16955 0.0872684 6.21331 0.0654513 6.23519C0.0218171 6.56335 0 6.9134 0 7.26345L0.0872684 70.0747L0.130903 108.339L37.1763 120.044L73 108.252L72.9564 70.031ZM59.997 49.7721C60.3243 50.0784 60.717 50.7128 60.717 51.4786C60.717 53.5351 59.2334 54.9134 57.1826 54.9134C57.1172 54.9134 56.9426 54.9134 56.8772 54.8915C56.8117 54.8915 56.7244 54.8696 56.7244 54.7821C56.7244 54.6727 56.8117 54.6509 57.1171 54.6509C58.5134 54.6509 59.6043 53.6226 59.6043 52.2881C59.6043 51.8067 59.5607 50.8441 58.7971 50.0784C58.0335 49.2908 57.1608 49.3564 56.8335 49.3564C56.5935 49.3564 56.3536 49.3783 56.2227 49.4439C56.1354 49.4658 56.1136 49.5752 56.1136 49.7283V55.6572C56.1136 57.0355 56.1136 58.1732 56.179 58.7858C56.2227 59.2015 56.3099 59.5296 56.7463 59.5734C56.9426 59.5953 57.2699 59.639 57.4008 59.639C57.488 59.639 57.5099 59.6828 57.5099 59.7265C57.5099 59.7922 57.4444 59.8359 57.2699 59.8359C56.4845 59.8359 55.5681 59.7922 55.5027 59.7922C55.4591 59.7922 54.5646 59.8359 54.1282 59.8359C53.9755 59.8359 53.8882 59.814 53.8882 59.7265C53.8882 59.6828 53.91 59.639 53.9973 59.639C54.1282 59.639 54.3027 59.6171 54.4336 59.5734C54.7173 59.5077 54.7827 59.2015 54.8482 58.7858C54.9136 58.1732 54.9136 57.0355 54.9136 55.6572V53.1194C54.9136 50.866 54.9136 50.4722 54.87 50.0128C54.8482 49.5314 54.7173 49.2908 54.2591 49.1814C54.15 49.1595 53.91 49.1376 53.7791 49.1376C53.7137 49.1376 53.6701 49.1158 53.6701 49.0501C53.6701 48.9626 53.7355 48.9407 53.91 48.9407C54.5646 48.9407 55.4154 48.9845 55.5245 48.9845C55.8299 48.9845 56.6808 48.9407 57.3353 48.9407C59.1243 48.9626 59.7788 49.5752 59.997 49.7721ZM55.8299 46.2279C52.0992 43.7776 47.5831 42.0273 42.6306 41.2835L48.1285 32.7293L55.8299 46.2279ZM48.4558 55.0228L47.8013 54.4977C46.2741 53.2507 45.925 52.3537 45.925 51.3692C45.925 49.8377 47.0813 48.7657 48.8921 48.7657C49.4594 48.7657 49.8739 48.8314 50.2229 48.9189C50.5066 48.9845 50.6157 48.9845 50.7247 48.9845C50.8338 48.9845 50.8775 49.0064 50.8775 49.0939C50.8775 49.1595 50.812 49.6408 50.812 50.6253C50.812 50.866 50.7902 50.9535 50.7029 50.9535C50.6157 50.9535 50.5938 50.8879 50.5938 50.7566C50.572 50.5816 50.4848 50.1878 50.3975 50.0346C50.3102 49.8815 49.9175 49.2689 48.6085 49.2689C47.6267 49.2689 46.8413 49.8815 46.8413 50.9535C46.8413 51.7849 47.2558 52.2662 48.6085 53.3819L49.0012 53.6882C50.7029 55.0228 51.0956 55.9198 51.0956 57.0793C51.0956 57.67 50.8775 58.7639 49.8739 59.464C49.263 59.9015 48.4776 60.0766 47.714 60.0766C47.0377 60.0766 46.3831 59.9672 45.7941 59.6828C45.5977 59.5734 45.5759 59.5296 45.5759 59.1358C45.5759 58.4139 45.6414 57.845 45.6414 57.6044C45.6632 57.4512 45.685 57.3637 45.7504 57.3637C45.8377 57.3637 45.8595 57.4075 45.8595 57.5169C45.8595 57.6481 45.8595 57.845 45.9032 58.0419C46.1213 59.1139 47.0595 59.5077 48.0412 59.5077C49.4157 59.5077 50.092 58.5014 50.092 57.5825C50.1139 56.6199 49.6993 56.051 48.4558 55.0228ZM36.8491 55.701V53.1632C36.8491 50.9097 36.8491 50.5159 36.8054 50.0565C36.7836 49.5752 36.6527 49.3345 36.1946 49.2252C36.0855 49.2033 35.8455 49.1814 35.7146 49.1814C35.6491 49.1814 35.6055 49.1595 35.6055 49.0939C35.6055 49.0064 35.6709 48.9845 35.8455 48.9845C36.5 48.9845 37.3945 49.0283 37.4599 49.0283C37.809 49.0283 38.3763 48.9845 39.0308 48.9845C41.387 48.9845 41.9106 50.4284 41.9106 51.1504C41.9106 52.3318 41.2343 53.0319 40.558 53.7539C41.627 54.082 43.0451 55.1103 43.0451 56.7949C43.0451 58.3263 41.8452 59.9453 39.3799 59.9453C39.0526 59.9453 37.5909 59.8578 37.4599 59.8578C37.3945 59.8578 36.4782 59.9015 36.0418 59.9015C35.8891 59.9015 35.8019 59.8797 35.8019 59.7922C35.8019 59.7484 35.8237 59.7046 35.9109 59.7046C36.0418 59.7046 36.2164 59.6828 36.3473 59.639C36.6309 59.5734 36.6964 59.2671 36.7618 58.8514C36.8491 58.2388 36.8491 57.1012 36.8491 55.701ZM47.7576 32.0729L40.9071 41.0647C40.8634 41.0647 40.8416 41.0647 40.798 41.0647L45.1396 27.5223L47.7576 32.0729ZM44.8559 26.9973L39.6635 39.6864L41.9979 21.9654L44.8559 26.9973ZM37.0236 13.258L41.9106 21.8122L37.8745 40.8897C37.8527 40.8897 37.8527 40.8897 37.8308 40.8897L37.0018 19.2087L36.1509 40.0802L32.1802 21.6372L37.0236 13.258ZM32.1148 21.7685L34.5146 39.5989L29.2131 26.7785L32.1148 21.7685ZM30.1294 59.4421C31.1984 59.4421 32.0493 59.3108 32.6384 58.7201C32.9438 58.392 33.1183 57.7794 33.162 57.5169C33.1838 57.3637 33.2274 57.2981 33.3147 57.2981C33.3802 57.2981 33.4238 57.4075 33.4238 57.5169C33.4238 57.6263 33.2493 58.8733 33.1183 59.3546C33.0311 59.639 33.0093 59.6609 32.7475 59.7703C32.1802 60.0109 31.0894 60.0984 30.1512 60.0984C27.9913 60.0984 26.5514 59.5734 25.4169 58.5451C24.0206 57.2981 23.6715 55.6572 23.6715 54.2789C23.6715 53.3163 23.9988 51.6317 25.286 50.3409C26.1369 49.4658 27.4459 48.7876 29.6712 48.7876C30.2385 48.7876 31.0457 48.8314 31.7657 48.9626C32.3111 49.072 32.7693 49.1376 33.2274 49.1814C33.3802 49.2033 33.4238 49.247 33.4238 49.3345C33.4238 49.4439 33.3802 49.619 33.3583 50.144C33.3365 50.6253 33.3365 51.4129 33.3147 51.6317C33.2929 51.8505 33.2711 51.938 33.1838 51.938C33.0747 51.938 33.0747 51.8286 33.0747 51.6317C33.0747 51.0629 32.8347 50.4722 32.4638 50.1659C31.962 49.7283 30.8494 49.3564 29.584 49.3564C27.6641 49.3564 26.7914 49.9252 26.2896 50.4066C25.2424 51.4129 25.0024 52.7037 25.0024 54.1695C24.9369 56.9262 27.0532 59.4421 30.1294 59.4421ZM28.9295 27.2817L33.402 41.0647C33.3802 41.0647 33.3583 41.0647 33.3365 41.0647L26.2896 31.8541L28.9295 27.2817ZM25.8969 32.5105L31.5912 41.2835C26.3114 42.093 21.5553 44.0182 17.6937 46.7311L25.8969 32.5105ZM12.4139 59.7265C12.523 59.7265 12.7194 59.7046 12.8285 59.7046C13.483 59.6171 13.7666 59.0702 14.0284 58.3482L17.2791 49.4002C17.4537 48.9189 17.5191 48.8314 17.5846 48.8314C17.6718 48.8314 17.7373 48.897 17.9118 49.3564C18.13 49.9034 20.399 55.8541 21.2717 58.0419C21.7953 59.3327 22.2098 59.5515 22.5152 59.639C22.7334 59.7046 22.9516 59.7265 23.0825 59.7265C23.1698 59.7265 23.2352 59.7484 23.2352 59.814C23.2352 59.9015 23.1043 59.9234 22.9516 59.9234C22.7334 59.9234 21.6862 59.9234 20.7044 59.9015C20.4208 59.8797 20.2681 59.8797 20.2681 59.7922C20.2681 59.7265 20.3117 59.7046 20.3772 59.6828C20.4644 59.6609 20.5517 59.5296 20.4644 59.289L19.1336 55.7448C19.1118 55.6791 19.0681 55.6572 19.0027 55.6572H15.9047C15.8392 55.6572 15.7956 55.701 15.7519 55.7666L14.9011 58.3263C14.7702 58.6764 14.7047 59.0264 14.7047 59.289C14.7047 59.5734 15.0102 59.7046 15.2501 59.7046H15.4029C15.512 59.7046 15.5556 59.7265 15.5556 59.7922C15.5556 59.8797 15.4683 59.9015 15.3374 59.9015C14.9883 59.9015 14.3775 59.8578 14.2247 59.8578C14.072 59.8578 13.2866 59.9015 12.6103 59.9015C12.4139 59.9015 12.3267 59.8797 12.3267 59.7922C12.283 59.7484 12.3485 59.7265 12.4139 59.7265ZM37.1763 118.447L1.67992 107.245L1.61446 70.6654L36.5436 84.0109L71.4292 70.6217L71.4728 107.158L37.1763 118.447Z" fill="var(--fill-0, white)"/>
<path id="Vector_5" d="M15.7956 90.3337L13.8102 95.0374H14.8574L15.272 93.9873H17.2355L17.6718 95.0374H18.7409L16.7337 90.3337H15.7956ZM15.6429 93.0903L16.2537 91.5807L16.8864 93.0903H15.6429Z" fill="var(--fill-0, white)"/>
<path id="Vector_6" d="M22.9079 93.6153C22.7334 93.7903 22.5371 93.9216 22.3625 94.0091C22.188 94.0966 21.948 94.1622 21.6862 94.1622C21.4898 94.1622 21.2935 94.1185 21.1408 94.0529C20.9662 93.9653 20.8353 93.8778 20.7044 93.7466C20.5953 93.6153 20.4863 93.4622 20.4208 93.2871C20.3553 93.1121 20.3117 92.9152 20.3117 92.7183V92.6964C20.3117 92.4995 20.3553 92.3026 20.4208 92.1276C20.4863 91.9526 20.5735 91.7994 20.7044 91.6682C20.8135 91.5369 20.9662 91.4275 21.1408 91.3619C21.3153 91.2962 21.4898 91.2525 21.6862 91.2525C21.9262 91.2525 22.1444 91.2962 22.3189 91.3838C22.5152 91.4713 22.6898 91.6025 22.8861 91.7776L23.5406 91.0118C23.4316 90.9024 23.3225 90.8149 23.1916 90.7274C23.0607 90.6399 22.9298 90.5524 22.777 90.5086C22.6243 90.4649 22.4716 90.3993 22.2971 90.3555C22.1225 90.3117 21.9262 90.3117 21.708 90.3117C21.3589 90.3117 21.0099 90.3774 20.7262 90.5086C20.4208 90.6399 20.1808 90.8149 19.9626 91.0337C19.7445 91.2525 19.5917 91.515 19.4608 91.7994C19.3518 92.0838 19.2863 92.412 19.2863 92.7402V92.7621C19.2863 93.0902 19.3518 93.4184 19.4608 93.7028C19.5917 93.9872 19.7445 94.2498 19.9626 94.4685C20.1808 94.6873 20.4208 94.8623 20.7262 94.9717C21.0099 95.103 21.3371 95.1686 21.6862 95.1468C21.9044 95.1468 22.1225 95.1249 22.2971 95.0811C22.4716 95.0374 22.6461 94.9936 22.7989 94.9061C22.9516 94.8405 23.0825 94.7529 23.2134 94.6436C23.3443 94.5342 23.4752 94.4248 23.5843 94.2935L22.9079 93.6153Z" fill="var(--fill-0, white)"/>
<path id="Vector_7" d="M28.4713 94.2716L27.8168 93.6153C27.6423 93.7903 27.4459 93.9216 27.2714 94.0091C27.0968 94.0966 26.8568 94.1622 26.595 94.1622C26.3987 94.1622 26.2023 94.1185 26.0496 94.0529C25.8969 93.9872 25.7442 93.8778 25.6133 93.7466C25.5042 93.6153 25.3951 93.4622 25.3296 93.2871C25.2642 93.1121 25.2206 92.9152 25.2206 92.7183V92.6964C25.2206 92.4995 25.2642 92.3026 25.3296 92.1276C25.3951 91.9526 25.4824 91.7994 25.6133 91.6682C25.7224 91.5369 25.8751 91.4275 26.0496 91.3619C26.2241 91.2962 26.3987 91.2525 26.595 91.2525C26.835 91.2525 27.0532 91.2962 27.2277 91.3838C27.4241 91.4713 27.5986 91.6025 27.795 91.7776L28.4495 91.0118C28.3404 90.9024 28.2313 90.8149 28.1004 90.7274C27.9695 90.6399 27.8386 90.5524 27.6859 90.5086C27.5332 90.4649 27.3805 90.3993 27.2059 90.3555C27.0314 90.3117 26.835 90.3117 26.6169 90.3117C26.2678 90.3117 25.9187 90.3774 25.6351 90.5086C25.3296 90.6399 25.0897 90.8149 24.8715 91.0337C24.6533 91.2525 24.5006 91.515 24.3697 91.7994C24.2606 92.0838 24.1952 92.412 24.1952 92.7402V92.7621C24.1952 93.0902 24.2606 93.4184 24.3697 93.7028C24.5006 93.9872 24.6533 94.2498 24.8715 94.4685C25.0897 94.6873 25.3296 94.8623 25.6351 94.9717C25.9187 95.103 26.246 95.1686 26.595 95.1468C26.8132 95.1468 27.0314 95.1249 27.2059 95.0811C27.3805 95.0374 27.555 94.9936 27.7077 94.9061C27.8604 94.8186 27.9913 94.7529 28.1222 94.6436C28.2313 94.5123 28.3622 94.4029 28.4713 94.2716Z" fill="var(--fill-0, white)"/>
<path id="Vector_8" d="M32.9002 92.8277C33.0747 92.5871 33.1838 92.2808 33.1838 91.9089V91.887C33.1838 91.4494 33.0529 91.0775 32.7911 90.815C32.4857 90.5087 32.0275 90.3337 31.4384 90.3337H29.3004V95.0155H30.3258V93.5278H31.1112H31.133L32.1366 95.0155H33.3365L32.202 93.3528C32.4857 93.2434 32.7256 93.0684 32.9002 92.8277ZM31.9402 92.4339C31.8093 92.5652 31.613 92.609 31.3512 92.609H30.3039V91.2744H31.3293C31.5912 91.2744 31.7875 91.34 31.9184 91.4494C32.0711 91.5588 32.1366 91.7338 32.1366 91.9526V91.9745C32.1366 92.1495 32.0711 92.3245 31.9402 92.4339Z" fill="var(--fill-0, white)"/>
<path id="Vector_9" d="M37.6563 95.0155V94.0966H35.1255V93.1121H37.3291V92.1933L35.1255 92.2151V91.2525H37.6127V90.3337H34.1001L34.1219 95.0155H37.6563Z" fill="var(--fill-0, white)"/>
<path id="Vector_10" d="M41.4089 94.8405C41.7143 94.7092 41.9761 94.5561 42.1943 94.3373C42.4124 94.1185 42.587 93.8779 42.6961 93.5935C42.8051 93.309 42.8706 93.0028 42.8706 92.6746V92.6527C42.8706 92.3245 42.8051 92.0182 42.6961 91.7338C42.587 91.4494 42.4124 91.2088 42.1943 90.99C41.9761 90.7712 41.7143 90.6181 41.4089 90.5087C41.1034 90.3993 40.7762 90.3337 40.4053 90.3337H38.5944V95.0155H40.4053C40.7543 95.0155 41.1034 94.9499 41.4089 94.8405ZM39.598 94.0748V91.2525H40.3834C40.6016 91.2525 40.7762 91.2963 40.9507 91.3619C41.1252 91.4275 41.2779 91.5369 41.387 91.6463C41.4961 91.7557 41.6052 91.9089 41.6707 92.0839C41.7361 92.2589 41.7797 92.4558 41.7797 92.6527V92.6746C41.7797 92.8934 41.7361 93.0684 41.6707 93.2434C41.6052 93.4184 41.4961 93.5497 41.387 93.681C41.2561 93.8122 41.1252 93.8997 40.9507 93.9654C40.7762 94.031 40.5798 94.0748 40.3834 94.0748H39.598Z" fill="var(--fill-0, white)"/>
<path id="Vector_11" d="M44.8527 90.333L43.8273 90.3345L43.8339 95.0163L44.8593 95.0149L44.8527 90.333Z" fill="var(--fill-0, white)"/>
<path id="Vector_12" d="M47.1031 91.2744L47.1249 94.9936H48.1503L48.1285 91.2744H49.5466V90.3117L45.685 90.3336V91.2744H47.1031Z" fill="var(--fill-0, white)"/>
<path id="Vector_13" d="M53.8882 94.9936V94.0747H51.3574V93.0902H53.561V92.1714L51.3574 92.1932V91.2306H53.8446V90.3117H50.332L50.3539 94.9936H53.8882Z" fill="var(--fill-0, white)"/>
<path id="Vector_14" d="M58.4262 90.9681C58.208 90.7493 57.9462 90.5962 57.6408 90.4868C57.3353 90.3774 57.0081 90.3117 56.6372 90.3117H54.8264V94.9936H56.6372C57.0081 94.9936 57.3353 94.928 57.6408 94.8186C57.9462 94.6873 58.208 94.5342 58.4262 94.3154C58.6444 94.0966 58.8189 93.856 58.928 93.5715C59.0371 93.2871 59.1025 92.9808 59.1025 92.6527V92.6308C59.1025 92.3026 59.0371 91.9963 58.928 91.7119C58.8189 91.4275 58.6444 91.1869 58.4262 90.9681ZM58.0335 92.6527C58.0335 92.8714 57.9898 93.0465 57.9244 93.2215C57.8589 93.3965 57.7499 93.5278 57.6408 93.6591C57.5099 93.7903 57.379 93.8778 57.2044 93.9435C57.0299 94.0091 56.8335 94.0529 56.6372 94.0529H55.8518V91.2306H56.6372C56.8554 91.2306 57.0299 91.2744 57.2044 91.34C57.379 91.4056 57.5317 91.515 57.6408 91.6244C57.7499 91.7338 57.8589 91.887 57.9244 92.062C57.9898 92.2589 58.0335 92.4339 58.0335 92.6527Z" fill="var(--fill-0, white)"/>
<path id="Vector_15" d="M22.3189 98.8223C22.1662 98.6691 21.9698 98.5597 21.7516 98.4941C21.5335 98.4066 21.2717 98.3847 21.0099 98.3847H19.1118V103.067H20.1372V101.666H20.9226C21.1844 101.666 21.4244 101.623 21.6644 101.557C21.8825 101.491 22.1007 101.382 22.2534 101.251C22.428 101.119 22.5589 100.944 22.6461 100.726C22.7334 100.529 22.7989 100.288 22.7989 100.004V99.9818C22.7989 99.7411 22.7552 99.5224 22.668 99.3254C22.5807 99.1504 22.4716 98.9754 22.3189 98.8223ZM21.7516 100.026C21.7516 100.222 21.6862 100.397 21.5335 100.529C21.3808 100.66 21.1844 100.726 20.9444 100.726H20.1372V99.3036H20.9226C21.1844 99.3036 21.3808 99.3692 21.5335 99.4786C21.6862 99.6099 21.7516 99.7849 21.7516 100.026Z" fill="var(--fill-0, white)"/>
<path id="Vector_16" d="M27.1841 100.857C27.3586 100.616 27.4677 100.31 27.4677 99.938V99.9162C27.4677 99.4786 27.3368 99.1067 27.075 98.8441C26.7696 98.5378 26.3114 98.3628 25.7224 98.3628H23.5843V103.045H24.6097V101.557H25.3951H25.4169L26.4205 103.045H27.6204L26.486 101.382C26.7478 101.273 26.9877 101.098 27.1841 100.857ZM26.3987 99.9818C26.3987 100.179 26.3332 100.332 26.2023 100.463C26.0714 100.594 25.8751 100.638 25.6133 100.638H24.566V99.3036H25.5915C25.8533 99.3036 26.0496 99.3692 26.1805 99.4786C26.3114 99.588 26.3987 99.7411 26.3987 99.9818Z" fill="var(--fill-0, white)"/>
<path id="Vector_17" d="M32.4202 98.9973C32.202 98.7785 31.9402 98.6035 31.6348 98.4941C31.3293 98.3628 31.0021 98.2972 30.6312 98.2972C30.2603 98.2972 29.9331 98.3628 29.6276 98.4941C29.3222 98.6253 29.0604 98.8004 28.8422 99.0191C28.624 99.2379 28.4495 99.5005 28.3186 99.7849C28.1877 100.069 28.1222 100.397 28.144 100.726V100.747C28.144 101.076 28.2095 101.404 28.3186 101.688C28.4495 101.973 28.6022 102.235 28.8422 102.454C29.0822 102.673 29.3222 102.848 29.6276 102.957C29.9331 103.088 30.2603 103.154 30.6312 103.154C31.0021 103.154 31.3293 103.088 31.6348 102.957C31.9402 102.826 32.202 102.651 32.4202 102.432C32.6384 102.213 32.8129 101.951 32.9438 101.666C33.0747 101.382 33.1402 101.054 33.1183 100.726V100.682C33.1183 100.354 33.0529 100.026 32.9438 99.7411C32.8129 99.4567 32.6384 99.216 32.4202 98.9973ZM32.0493 100.726C32.0493 100.923 32.0057 101.119 31.9402 101.294C31.8748 101.469 31.7657 101.623 31.6566 101.754C31.5257 101.885 31.3948 101.995 31.2203 102.06C31.0457 102.126 30.8494 102.17 30.653 102.17C30.4348 102.17 30.2603 102.126 30.0858 102.06C29.9112 101.973 29.7585 101.885 29.6494 101.754C29.5185 101.623 29.4313 101.469 29.3658 101.294C29.3004 101.119 29.2567 100.923 29.2567 100.726V100.704C29.2567 100.507 29.3004 100.31 29.3658 100.135C29.4313 99.9599 29.5403 99.8067 29.6494 99.6755C29.7803 99.5442 29.9112 99.4348 30.0858 99.3692C30.2603 99.3036 30.4567 99.2598 30.653 99.2598C30.8494 99.2598 31.0457 99.3036 31.2203 99.3692C31.3948 99.4567 31.5475 99.5442 31.6784 99.6755C31.8093 99.8067 31.8966 99.9599 31.962 100.135C32.0275 100.31 32.0493 100.507 32.0493 100.726Z" fill="var(--fill-0, white)"/>
<path id="Vector_18" d="M36.26 100.354V101.251H37.2854V101.929C37.0236 102.126 36.6964 102.213 36.3255 102.213C36.1073 102.213 35.9328 102.17 35.7582 102.104C35.5837 102.038 35.431 101.929 35.3219 101.798C35.191 101.666 35.1037 101.513 35.0383 101.316C34.9728 101.141 34.9292 100.944 34.9292 100.726V100.682C34.9292 100.485 34.9728 100.288 35.0383 100.113C35.1037 99.938 35.2128 99.7849 35.3219 99.6536C35.4528 99.5223 35.5837 99.4129 35.7582 99.3473C35.9109 99.2598 36.0855 99.2379 36.2818 99.2379C36.4127 99.2379 36.5436 99.2379 36.6527 99.2817C36.7618 99.3036 36.8709 99.3254 36.9582 99.3692C37.0454 99.4129 37.1545 99.4567 37.2418 99.5223C37.329 99.588 37.4163 99.6536 37.5036 99.7192L38.1581 98.9316C38.049 98.8222 37.9181 98.7347 37.7872 98.6691C37.6563 98.6035 37.5254 98.5159 37.3727 98.4722C37.22 98.4284 37.0672 98.3847 36.8927 98.3409C36.7182 98.319 36.5218 98.2972 36.3255 98.2972C35.9764 98.2972 35.6491 98.3628 35.3437 98.4941C35.0383 98.6253 34.7983 98.8004 34.5801 99.0191C34.3619 99.2379 34.1874 99.5005 34.0783 99.7849C33.9474 100.069 33.9038 100.397 33.9038 100.726V100.747C33.9038 101.098 33.9692 101.426 34.0783 101.71C34.2092 101.995 34.3619 102.257 34.5801 102.476C34.7983 102.695 35.0601 102.848 35.3437 102.979C35.6491 103.088 35.9764 103.154 36.3473 103.154C36.7836 103.154 37.1545 103.088 37.4818 102.935C37.809 102.782 38.0926 102.607 38.3326 102.41V100.376L36.26 100.354Z" fill="var(--fill-0, white)"/>
<path id="Vector_19" d="M42.8706 100.835C43.0451 100.594 43.1542 100.288 43.1542 99.9161V99.8942C43.1542 99.4567 43.0233 99.0848 42.7615 98.8222C42.4561 98.5159 41.9979 98.3409 41.4088 98.3409H39.2708V103.023H40.2962V101.535H41.0816H41.1034L42.107 103.023H43.3069L42.1724 101.36C42.4561 101.251 42.6961 101.076 42.8706 100.835ZM42.107 99.9599C42.107 100.157 42.0415 100.332 41.9106 100.441C41.7797 100.572 41.5834 100.616 41.3216 100.616H40.2744V99.2817H41.2998C41.5616 99.2817 41.7579 99.3473 41.8888 99.4567C42.0415 99.5661 42.107 99.7192 42.107 99.9599Z" fill="var(--fill-0, white)"/>
<path id="Vector_20" d="M45.685 98.319L43.6996 103.023H44.7469L45.1614 101.973H47.1249L47.5613 103.023H48.6303L46.6231 98.319H45.685ZM45.5323 101.076L46.1432 99.5661L46.7758 101.076H45.5323Z" fill="var(--fill-0, white)"/>
<path id="Vector_21" d="M52.9065 98.3409L51.6847 100.31L50.4411 98.3409H49.3503V103.023H50.3539V99.9818L51.6629 101.951H51.6847L52.9937 99.9599V103.023H54.0191L53.9973 98.3409H52.9065Z" fill="var(--fill-0, white)"/>
</g>
</svg>
