<svg preserveAspectRatio="none" width="100%" height="100%" overflow="visible" style="display: block;" viewBox="0 0 88.1313 40.3513" fill="none" xmlns="http://www.w3.org/2000/svg">
<g id="Group">
<path id="Vector" d="M3.20703 11.8905C3.625 13.33 4.64765 14.12 6.15937 14.12C7.43672 14.12 8.6 13.6555 8.6 12.4479C8.6 11.821 8.25078 11.2402 6.71719 10.7055L4.95078 10.1021C1.34922 8.87103 0.814062 6.61893 0.814062 5.27157C0.814062 2.34578 3.11563 0.533948 6.29922 0.533948C8.80938 0.533948 10.7617 1.74158 11.7375 4.08658L8.80938 5.55025C8.1125 3.90235 6.97266 3.715 6.29922 3.715C5.1836 3.715 4.32344 4.15683 4.32344 5.22395C4.32344 5.64158 4.43906 6.40816 6.06719 6.96631L7.78672 7.56973C11.4359 8.7071 12.0867 10.8913 12.1094 12.3776C12.1094 15.7921 9.13438 17.301 6.275 17.301C3.16094 17.301 0.325001 15.536 9.53674e-07 12.5173L3.20703 11.8897V11.8905Z" fill="var(--fill-0, white)"/>
<path id="Vector_2" d="M20.3375 4.87735C23.8234 4.87735 26.8914 7.3855 26.8914 11.0786C26.8914 14.7718 23.8234 17.3026 20.3375 17.3026C16.8516 17.3026 13.7836 14.8171 13.7836 11.0786C13.7836 7.34023 16.875 4.87735 20.3375 4.87735ZM20.3375 14.3292C22.057 14.3292 23.5219 12.9358 23.5219 11.0779C23.5219 9.21997 22.057 7.84919 20.3375 7.84919C18.618 7.84919 17.1531 9.21841 17.1531 11.0779C17.1531 12.9373 18.6406 14.3292 20.3375 14.3292Z" fill="var(--fill-0, white)"/>
<path id="Vector_3" d="M29.1227 22.4797V5.13262H32.5859V6.87497C33.4461 5.64393 34.5844 4.87813 36.3281 4.87813C39.9539 4.87813 42.1383 7.66497 42.1383 11.1481C42.1383 14.6313 40.1172 17.3026 36.3984 17.3026C34.7945 17.3026 33.4 16.5134 32.5867 15.4213V22.4812H29.1219L29.1227 22.4797ZM35.6078 7.68682C33.9109 7.68682 32.4937 8.77892 32.4937 10.9381C32.4937 13.0973 33.8188 14.4908 35.7008 14.4908C37.5828 14.4908 38.6758 12.9584 38.6758 11.1231C38.6758 9.28789 37.5141 7.68604 35.6078 7.68604V7.68682Z" fill="var(--fill-0, white)"/>
<path id="Vector_4" d="M44.4406 0.255264H47.9031V6.75788C48.9023 5.36446 50.1578 4.87735 51.5992 4.87735C54.9461 4.87735 55.8531 7.54865 55.8531 10.5673V17.0457H52.3898V10.636C52.3898 8.98813 51.7859 7.73288 50.1813 7.73288C48.5766 7.73288 47.9039 9.01077 47.9039 10.6587V17.0457H44.4414V0.255264H44.4406Z" fill="var(--fill-0, white)"/>
<path id="Vector_5" d="M60.5008 0C61.7328 0 62.7094 0.813413 62.7094 1.9742C62.7094 3.13499 61.7336 3.90235 60.5008 3.90235C59.268 3.90235 58.3164 3.11314 58.3164 1.9742C58.3164 0.83527 59.2461 0 60.5008 0ZM58.7344 17.0457V5.13183H62.1969V17.0457H58.7344Z" fill="var(--fill-0, white)"/>
<path id="Vector_6" d="M77.5375 5.1334V17.0473H74.075V15.305C73.2148 16.536 72.0766 17.3018 70.3328 17.3018C66.707 17.3018 64.5227 14.515 64.5227 11.0318C64.5227 7.54865 66.5453 4.87735 70.2641 4.87735C71.868 4.87735 73.2625 5.66656 74.0758 6.75788V5.13262H77.5383L77.5375 5.1334ZM71.0531 14.4915C72.75 14.4915 74.1672 13.4002 74.1672 11.2402C74.1672 9.08024 72.843 7.68682 70.9602 7.68682C69.0773 7.68682 67.9852 9.21919 67.9852 11.0544C67.9852 12.8897 69.1469 14.4915 71.0531 14.4915Z" fill="var(--fill-0, white)"/>
<path id="Vector_7" d="M84.0305 8.17862C83.6899 8.52131 83.2781 8.69149 82.7961 8.69149C82.3141 8.69149 81.9023 8.52131 81.5633 8.17862C81.2266 7.83826 81.0563 7.42688 81.0563 6.94289C81.0563 6.4589 81.2266 6.05375 81.5672 5.7134C81.9055 5.37539 82.3156 5.20521 82.7961 5.20521C83.2766 5.20521 83.6899 5.37539 84.0305 5.7134C84.3711 6.05141 84.5414 6.46124 84.5414 6.94289C84.5414 7.42453 84.3711 7.83826 84.0305 8.17862ZM81.7359 5.88358C81.4438 6.17553 81.2977 6.52994 81.2977 6.94523C81.2977 7.36052 81.4414 7.71883 81.7313 8.01312C82.0234 8.30664 82.3758 8.45496 82.7938 8.45496C83.2117 8.45496 83.5641 8.30742 83.8563 8.01312C84.1484 7.71961 84.2945 7.36286 84.2945 6.94523C84.2945 6.52759 84.1484 6.17787 83.8563 5.88358C83.5625 5.59006 83.2094 5.44174 82.7938 5.44174C82.3781 5.44174 82.0273 5.58928 81.7336 5.88358H81.7359ZM82.7617 5.98037C82.9992 5.98037 83.1734 6.00301 83.2844 6.04907C83.4828 6.13182 83.5805 6.29185 83.5805 6.53306C83.5805 6.70558 83.518 6.83048 83.3938 6.9101C83.3266 6.95225 83.2359 6.9827 83.118 7.00299C83.268 7.02719 83.3774 7.09043 83.4461 7.18957C83.5149 7.29105 83.5492 7.39018 83.5492 7.48542V7.62515C83.5492 7.66965 83.5492 7.71649 83.5531 7.76723C83.557 7.81797 83.5609 7.84997 83.5695 7.86637L83.582 7.89057H83.2656C83.2656 7.89057 83.2617 7.87808 83.2617 7.87261C83.2617 7.86715 83.2578 7.85856 83.2578 7.84997L83.25 7.78909V7.63686C83.25 7.41595 83.1891 7.26997 83.0695 7.19971C82.9984 7.15912 82.8727 7.13883 82.6945 7.13883H82.4289V7.89057H82.0922V5.97803H82.7609V5.98037H82.7617ZM83.1266 6.28248C83.0414 6.23564 82.9055 6.21144 82.7172 6.21144H82.4297V6.90386H82.7336C82.8758 6.90386 82.9828 6.8898 83.0562 6.8617C83.1883 6.8094 83.2547 6.70948 83.2547 6.56194C83.2547 6.42221 83.2125 6.32932 83.1273 6.28248H83.1266Z" fill="var(--fill-0, white)"/>
<path id="Vector_8" d="M12.9844 34.2133H19.1367V35.481H11.5984V22.7451H12.9844V34.2133Z" fill="var(--fill-0, white)"/>
<path id="Vector_9" d="M29.9227 31.2625H21.482C21.7133 33.3007 23.1828 34.4826 25.1562 34.4826C26.5 34.4826 27.6969 33.8511 28.3477 32.8113L29.5023 33.3007C28.6414 34.8292 26.9617 35.7253 25.1141 35.7253C22.3422 35.7253 20.1375 33.7082 20.1375 30.6919C20.1375 27.6755 22.3422 25.7193 25.1141 25.7193C27.8859 25.7193 29.9641 27.6755 29.9641 30.6919C29.9641 30.8753 29.943 31.0791 29.9219 31.2625H29.9227ZM28.6211 30.1423C28.432 28.1658 27.025 26.9636 25.1148 26.9636C23.2047 26.9636 21.7766 28.1049 21.5031 30.1423H28.6211Z" fill="var(--fill-0, white)"/>
<path id="Vector_10" d="M40.2734 25.9644H41.6172V35.481H40.2734V33.5045C39.5594 34.8089 38.0477 35.7253 36.3047 35.7253C33.6383 35.7253 31.3914 33.5451 31.3914 30.7122C31.3914 27.8793 33.5539 25.7193 36.3469 25.7193C38.0266 25.7193 39.5383 26.514 40.2734 27.8184V25.9636V25.9644ZM40.2734 30.7535C40.2734 28.5327 38.4258 26.9636 36.4516 26.9636C34.4773 26.9636 32.7141 28.6755 32.7141 30.7129C32.7141 32.7504 34.3938 34.4826 36.4727 34.4826C38.5516 34.4826 40.2734 32.8932 40.2734 30.7535Z" fill="var(--fill-0, white)"/>
<path id="Vector_11" d="M50.2562 26.005L50.0039 27.2477C49.5 27.044 49.0383 26.9831 48.6812 26.9831C46.3508 26.9831 45.6367 29.5506 45.6367 31.894V35.481H44.2719V25.9644H45.6367V28.2875C46.1195 26.6779 47.1695 25.7201 48.7023 25.7201C49.2484 25.7201 49.8781 25.8215 50.2562 26.005Z" fill="var(--fill-0, white)"/>
<path id="Vector_12" d="M60.8273 29.9386V35.4818H59.4836V30.0002C59.4836 28.1665 58.2867 27.005 56.7117 27.005C55.1367 27.005 53.4781 27.9019 53.4359 30.204V35.4818H52.0922V25.9652H53.4359V27.6771C54.0242 26.3118 55.6195 25.7208 56.8375 25.7208C59.2102 25.7208 60.8266 27.3102 60.8266 29.9393L60.8273 29.9386Z" fill="var(--fill-0, white)"/>
<path id="Vector_13" d="M62.9789 23.546C62.9789 22.9957 63.4617 22.6085 64.0078 22.6085C64.5953 22.6085 65.0578 22.9957 65.0578 23.546C65.0578 24.0964 64.5961 24.4633 64.0078 24.4633C63.4617 24.4633 62.9789 24.0761 62.9789 23.546ZM63.3352 35.481V25.9628H64.6789V35.481H63.3352Z" fill="var(--fill-0, white)"/>
<path id="Vector_14" d="M76.2484 29.9386V35.4818H74.9047V30.0002C74.9047 28.1665 73.7078 27.005 72.1328 27.005C70.5578 27.005 68.8992 27.9019 68.857 30.204V35.4818H67.5133V25.9652H68.857V27.6771C69.4453 26.3118 71.0406 25.7208 72.2586 25.7208C74.6313 25.7208 76.2477 27.3102 76.2477 29.9393L76.2484 29.9386Z" fill="var(--fill-0, white)"/>
<path id="Vector_15" d="M86.7875 25.9644H88.1313V34.1766C88.1313 38.7823 86.0102 40.3513 82.8188 40.3513C81.1602 40.3513 79.543 39.5567 78.5773 38.0079L79.7109 37.3967C80.425 38.5379 81.643 39.1086 82.8188 39.1086C85.2125 39.1086 86.7875 37.9267 86.7875 34.2585V33.6473C86.0523 34.9314 84.5195 35.7261 82.882 35.7261C80.1523 35.7261 77.9055 33.6067 77.9055 30.7129C77.9055 27.8192 80.1312 25.7201 82.882 25.7201C84.5406 25.7201 86.0523 26.5147 86.7875 27.7989V25.9652V25.9644ZM86.7875 30.7535C86.7875 28.4507 84.9398 26.9636 82.9867 26.9636C80.9289 26.9636 79.2492 28.5935 79.2492 30.6927C79.2492 32.7918 80.9289 34.4826 82.9867 34.4826C85.0445 34.4826 86.7875 32.9541 86.7875 30.7535Z" fill="var(--fill-0, white)"/>
</g>
</svg>
