<svg preserveAspectRatio="xMidYMid meet" width="165" height="37" overflow="visible" style="display: block;" viewBox="0 0 165 37" fill="none" xmlns="http://www.w3.org/2000/svg">
<g id="JWMI_logo_horizontal_color" clip-path="url(#clip0_0_1091)">
<g id="Group">
<path id="Vector" d="M7.3452 0C5.38527 0 3.54122 0.718044 2.15351 2.02698C0.76491 3.3351 0 5.07545 0 6.92409C0 10.0742 2.72039 12.6362 6.06201 12.6362C8.83591 12.6362 11.0898 10.5103 11.0898 7.89603C11.0898 5.71033 9.20224 3.92796 6.88387 3.92796C5.93641 3.92796 5.63927 4.55117 5.73749 4.96788C5.84244 5.41338 6.39301 5.65431 6.88387 5.65431C8.19328 5.65431 9.26116 6.66172 9.26116 7.89603C9.26116 9.55888 7.8269 10.9136 6.06201 10.9136C3.72883 10.9136 1.82974 9.12186 1.82974 6.92408C1.82974 5.53573 2.404 4.23141 3.4466 3.24826C4.4892 2.26418 5.8729 1.74399 7.34473 1.74399L28.0395 1.75486V12.6345C28.0395 21.7515 23.1481 30.0786 14.9487 34.9351C7.12283 30.2989 2.55125 22.5878 2.1315 13.9571C2.01824 13.0807 0.638229 12.9842 0.370158 13.8293C0.768451 23.6878 5.30299 30.8693 14.0789 36.4918L14.9475 37L15.8184 36.4918C24.6373 31.3222 29.9005 22.4049 29.9005 12.6346V0H7.3452Z" fill="var(--fill-0, white)"/>
<path id="Vector_2" d="M13.0021 7.68039C13.0021 7.68039 12.996 31.3538 12.9892 32.1955C12.989 32.2107 12.9926 32.2228 12.9997 32.2307C13.0383 32.2738 13.2533 32.4416 13.3989 32.5517C14.0739 33.0617 14.6649 33.4216 14.8059 33.5C14.8236 33.5099 14.8329 33.4981 14.8329 33.4714V7.68039C14.8329 7.20609 14.4215 6.81762 13.9171 6.81762C13.4116 6.81762 13.0021 7.20609 13.0021 7.68039Z" fill="var(--fill-0, white)"/>
<path id="Vector_3" d="M16.6414 7.66358V32.4116C16.6414 32.4116 16.6438 32.4247 16.6486 32.4323C16.6565 32.4447 16.6751 32.4532 16.6986 32.4384C16.7465 32.4082 18.1005 31.2861 18.2048 31.1982C18.3092 31.1103 18.4016 31.0379 18.4575 30.9663C18.4721 30.9556 18.4711 30.9289 18.4711 30.9289V7.66358C18.4711 7.18929 18.0607 6.80274 17.5587 6.80274C17.0518 6.80274 16.6414 7.18929 16.6414 7.66358Z" fill="var(--fill-0, white)"/>
<path id="Vector_4" d="M20.2904 7.68512V29.0632C20.2904 29.0632 20.2894 29.078 20.2968 29.0889C20.3045 29.1 20.3209 29.107 20.3455 29.0847C20.4737 28.9686 20.7855 28.6216 20.8826 28.5174C21.0135 28.377 21.9019 27.346 22.09 27.1517C22.1207 27.1199 22.1207 27.0723 22.1207 27.0723V7.68512C22.1207 7.2071 21.7108 6.82137 21.2052 6.82137C20.7014 6.82137 20.2904 7.2071 20.2904 7.68512Z" fill="var(--fill-0, white)"/>
<path id="Vector_5" d="M23.9365 7.68512V23.882C23.9365 23.882 23.9532 23.955 23.9902 23.8978C24.1845 23.5973 24.4604 23.0542 24.9169 22.0664C25.1649 21.53 25.711 20.1365 25.7511 20.0449C25.7652 20.0125 25.7652 19.9692 25.7652 19.9692V7.68512C25.7652 7.2071 25.3549 6.82137 24.85 6.82137C24.344 6.82137 23.9365 7.2071 23.9365 7.68512Z" fill="var(--fill-0, white)"/>
<path id="Vector_6" d="M26.8908 5.17199C26.8908 5.17199 26.8863 3.61656 26.8864 3.56548C26.8865 3.50686 26.8319 3.50686 26.8319 3.50686H13.9046C13.3982 3.50686 12.9888 3.8934 12.9888 4.36963C12.9888 4.84673 13.3982 5.23134 13.9046 5.23134H26.8357C26.8837 5.23134 26.8908 5.17199 26.8908 5.17199Z" fill="var(--fill-0, white)"/>
</g>
<g id="Group_2">
<path id="Vector_7" d="M36.3749 18.8657L37.8163 18.0013C38.2094 18.6929 38.6244 19.1899 39.5416 19.1899C40.3934 19.1899 41.0049 18.8009 41.0049 17.4827V9.59496H42.7739V17.5259C42.7739 19.7085 41.4417 20.7674 39.6071 20.7674C37.9036 20.7458 36.9209 19.903 36.3749 18.8657Z" fill="var(--fill-0, white)"/>
<path id="Vector_8" d="M55.7903 18.5416H51.2695L50.3959 20.5946H48.6269L53.4971 9.35725H53.6063L58.4984 20.5946H56.642L55.7903 18.5416ZM51.9028 17.0289H55.1351L53.5408 13.1823L51.9028 17.0289Z" fill="var(--fill-0, white)"/>
<path id="Vector_9" d="M62.7134 15.1056C62.7134 11.8424 65.225 9.44369 68.3917 9.44369C70.4447 9.44369 71.8861 10.2433 72.847 11.5831L71.5148 12.5123C70.7723 11.5183 69.8331 10.9996 68.3481 10.9996C66.1423 10.9996 64.5261 12.75 64.5261 15.084C64.5261 17.4611 66.1641 19.1683 68.4136 19.1683C69.855 19.1683 70.9251 18.628 71.755 17.5691L73.1091 18.4984C71.9734 20.0111 70.5102 20.7458 68.3481 20.7458C65.1813 20.7458 62.7134 18.3471 62.7134 15.1056Z" fill="var(--fill-0, white)"/>
<path id="Vector_10" d="M83.6358 14.3276L88.1347 20.6162H86.0163L82.4783 15.6242L81.2334 17.0937V20.6162H79.4863V9.59496H81.2334V14.9111L85.6232 9.59496H87.5888L83.6358 14.3276Z" fill="var(--fill-0, white)"/>
<path id="Vector_11" d="M92.9395 9.59496H94.7958L97.1763 16.6183L100.321 9.35725H100.43L103.575 16.6183L105.934 9.59496H107.659L103.772 20.7458H103.663L100.365 13.0742L97.0016 20.7458H96.9143L92.9395 9.59496Z" fill="var(--fill-0, white)"/>
<path id="Vector_12" d="M112.814 9.59496H119.911V11.1293H114.561V14.2844H119.3V15.7971H114.561V19.0602H120.13V20.6162H112.814V9.59496Z" fill="var(--fill-0, white)"/>
<path id="Vector_13" d="M126.485 9.59496H128.232V19.0602H133.146V20.6162H126.485V9.59496Z" fill="var(--fill-0, white)"/>
<path id="Vector_14" d="M137.558 15.1056C137.558 11.8424 140.069 9.44369 143.236 9.44369C145.289 9.44369 146.73 10.2433 147.691 11.5831L146.359 12.5123C145.617 11.5183 144.678 10.9996 143.192 10.9996C140.987 10.9996 139.37 12.75 139.37 15.084C139.37 17.4611 141.008 19.1683 143.258 19.1683C144.699 19.1683 145.769 18.628 146.599 17.5691L147.953 18.4984C146.796 20.0111 145.355 20.7458 143.192 20.7458C140.004 20.7458 137.558 18.3471 137.558 15.1056Z" fill="var(--fill-0, white)"/>
<path id="Vector_15" d="M160.839 9.59496H162.586V20.6162H160.839V16.0132H155.51V20.6162H153.741V9.59496H155.51V14.4573H160.839V9.59496Z" fill="var(--fill-0, white)"/>
</g>
<path id="Vector_16" d="M37.6853 24.5709L39.7819 26.9696L41.8566 24.5709H41.8785V28.9361H41.267V26.17L39.8037 27.8988H39.7819L38.3186 26.17V28.9361H37.6853V24.5709ZM47.6223 28.1365H45.8751L45.5475 28.9361H44.8705L46.7705 24.5709H46.8142L48.7143 28.9361H47.9935L47.6223 28.1365ZM46.1153 27.5531H47.382L46.7705 26.062L46.1153 27.5531ZM52.2523 26.1268V28.9361H51.6189V24.6141H51.6626L54.4362 27.4882V24.6789H55.0696V29.001H55.0259L52.2523 26.1268ZM61.2283 28.1365H59.4812L59.1536 28.9361H58.4766L60.3766 24.5709H60.4203L62.3203 28.9361H61.5996L61.2283 28.1365ZM59.7214 27.5531H60.9881L60.3766 26.062L59.7214 27.5531ZM65.1376 26.7967C65.1376 25.5433 66.1204 24.6141 67.3434 24.6141C68.1515 24.6141 68.632 24.895 68.9814 25.284L68.5228 25.7162C68.2607 25.4353 67.9549 25.1976 67.3434 25.1976C66.4699 25.1976 65.8583 25.8675 65.8583 26.7751C65.8583 27.6827 66.4699 28.3527 67.4745 28.3527C67.9331 28.3527 68.2825 28.2446 68.5228 28.0933V27.2289H67.3653V26.6454H69.1561V28.4175C68.7848 28.72 68.2825 28.9794 67.4745 28.9794C66.1204 28.9794 65.1376 28.0501 65.1376 26.7967ZM72.7378 24.6573H75.4896V25.2624H73.4149V26.4942H75.2494V27.0777H73.4149V28.3527H75.577V28.9577H72.7378L72.7378 24.6573ZM79.1805 24.5709L81.2771 26.9696L83.3519 24.5709H83.3737V28.9361H82.7622V26.17L81.2989 27.8988H81.2771L79.8139 26.17V28.9361H79.1805V24.5709ZM86.6715 24.6573H89.4233V25.2624H87.3485V26.4942H89.183V27.0777H87.3485V28.3527H89.5106V28.9577H86.6715L86.6715 24.6573ZM93.7475 26.1268V28.9361H93.1142V24.6141H93.1578L95.9315 27.4882V24.6789H96.5648V29.001H96.5212L93.7475 26.1268ZM101.239 25.2624H99.95V24.6573H103.182V25.2624H101.894V28.9361H101.217V25.2624H101.239ZM110.826 24.6573H111.503V28.9361H110.826V24.6573ZM115.74 26.1268V28.9361H115.107V24.6141H115.15L117.924 27.4882V24.6789H118.557V29.001H118.514L115.74 26.1268ZM122.532 27.8124C122.729 28.1798 123.056 28.3959 123.515 28.3959C123.974 28.3959 124.279 28.1798 124.279 27.834C124.279 27.4234 123.974 27.2721 123.58 27.1209L123.275 26.9912C122.641 26.7103 122.205 26.4077 122.205 25.7378C122.205 25.0895 122.707 24.6357 123.449 24.6357C124.039 24.6357 124.454 24.8518 124.716 25.3056L124.192 25.6298C124.017 25.3488 123.799 25.2192 123.449 25.2192C123.078 25.2192 122.86 25.4137 122.86 25.7162C122.86 26.062 123.078 26.17 123.537 26.3861L123.842 26.5158C124.498 26.7967 124.934 27.1209 124.934 27.834C124.934 28.612 124.323 29.0226 123.515 29.0226C122.772 29.0226 122.248 28.6768 121.964 28.1149L122.532 27.8124ZM128.931 25.2624H127.643V24.6573H130.875V25.2624H129.586V28.9361H128.909V25.2624H128.931ZM134.326 24.6573H135.003V28.9361H134.326V24.6573ZM139.261 25.2624H137.973V24.6573H141.205V25.2624H139.916V28.9361H139.239V25.2624H139.261ZM144.459 27.4234V24.6573H145.136V27.3802C145.136 28.0717 145.486 28.3743 146.097 28.3743C146.709 28.3743 147.058 28.0717 147.058 27.3802V24.6573H147.735V27.4234C147.735 28.4607 147.014 28.9793 146.097 28.9793C145.158 28.9793 144.459 28.4607 144.459 27.4234ZM152.409 25.2624H151.12V24.6573H154.374V25.2624H153.086V28.9361H152.409V25.2624ZM157.628 24.8086H160.38V25.4137H158.327V26.6454H160.162V27.2289H158.327V28.5039H160.489V29.109H157.65V24.8086L157.628 24.8086Z" fill="var(--fill-0, white)"/>
<path id="Vector_17" d="M164.28 25.8452C164.28 25.6543 164.225 25.5179 164.059 25.4633C163.976 25.436 163.839 25.4087 163.646 25.4087H163.149V26.8819H163.397V26.309H163.59C163.728 26.309 163.811 26.3363 163.866 26.3636C163.949 26.4182 164.004 26.5273 164.004 26.691V26.9092H164.252V26.5818C164.252 26.5273 164.225 26.4454 164.169 26.3636C164.114 26.2818 164.032 26.2545 163.921 26.2272C164.032 26.1999 164.087 26.1726 164.142 26.1453C164.225 26.0635 164.28 25.9817 164.28 25.8452ZM163.894 26.0635C163.839 26.0908 163.756 26.0908 163.646 26.0908H163.397V25.5725H163.618C163.756 25.5725 163.866 25.5997 163.921 25.627C163.977 25.6543 164.032 25.7361 164.059 25.8453C164.059 25.9544 164.004 26.0362 163.894 26.0635Z" fill="var(--fill-0, white)"/>
<path id="Vector_18" d="M164.611 25.1905C164.335 24.945 164.032 24.8086 163.646 24.8086C163.287 24.8086 162.956 24.945 162.708 25.1905C162.46 25.436 162.322 25.7634 162.322 26.1181C162.322 26.5 162.46 26.8001 162.708 27.0729C162.956 27.3184 163.26 27.4548 163.646 27.4548C164.032 27.4548 164.335 27.3457 164.611 27.0729C164.886 26.8001 165.024 26.5 164.997 26.1181C164.997 25.7634 164.886 25.436 164.611 25.1905ZM164.5 26.9638C164.28 27.182 164.004 27.2912 163.673 27.2912C163.342 27.2912 163.067 27.182 162.846 26.9638C162.625 26.7455 162.515 26.4727 162.515 26.1453C162.515 25.818 162.625 25.5452 162.846 25.3269C163.067 25.1087 163.342 24.9723 163.673 24.9995C164.004 24.9995 164.28 25.1087 164.5 25.3269C164.721 25.5725 164.831 25.818 164.831 26.1453C164.831 26.4727 164.721 26.7455 164.5 26.9638Z" fill="var(--fill-0, white)"/>
</g>
<defs>
<clipPath id="clip0_0_1091">
<rect width="165" height="37" fill="white"/>
</clipPath>
</defs>
</svg>
