<svg preserveAspectRatio="xMidYMid meet" width="115.467" height="34.9241" overflow="visible" style="display: block;" viewBox="0 0 115.467 34.9241" fill="none" xmlns="http://www.w3.org/2000/svg">
<g id="Group 40 Copy">
<path id="Fill 1" fill-rule="evenodd" clip-rule="evenodd" d="M18.7654 12.4043L18.7557 11.4948H1.02687C0.836527 12.0182 0.669873 12.5529 0.529335 13.0981C0.385835 13.656 0.269258 14.2248 0.18095 14.8029C0.136796 15.0918 0.0996423 15.3831 0.0697577 15.6765C0.0684115 15.6895 0.0681423 15.7026 0.0667962 15.7153H13.604L13.6349 18.641C13.6349 25.9116 12.8028 30.5467 11.4219 33.8585C12.3402 34.1953 13.296 34.4532 14.2792 34.6328C14.8244 33.8246 15.3268 32.9442 15.7858 31.9561C17.8185 27.5781 18.7654 21.3654 18.7654 12.4043" fill="var(--fill-0, white)"/>
<path id="Fill 3" fill-rule="evenodd" clip-rule="evenodd" d="M11.0802 18.2659H5.38462e-05C0.285169 24.5545 3.89475 29.9771 9.11486 32.8145C10.3727 29.8037 11.0846 25.5561 11.0846 18.6546L11.0802 18.2659Z" fill="var(--fill-0, white)"/>
<path id="Fill 5" fill-rule="evenodd" clip-rule="evenodd" d="M34.8136 15.6766C34.7837 15.3831 34.7465 15.0918 34.7024 14.803C34.6141 14.2246 34.4975 13.656 34.354 13.0982C34.067 11.982 33.6723 10.9093 33.1817 9.89165C32.9365 9.38253 32.6673 8.88742 32.3757 8.40738C31.7923 7.4473 31.1189 6.54807 30.3675 5.72099C29.6158 4.89392 28.786 4.13953 27.8895 3.46915C26.5449 2.46357 25.0504 1.64726 23.4456 1.0598C22.9109 0.8638 22.3635 0.693377 21.8057 0.549608C20.4108 0.190723 18.9486 0.000107692 17.4417 0.000107692C15.9348 0.000107692 14.4724 0.190723 13.0778 0.549608C12.5196 0.693377 11.9726 0.8638 11.4376 1.0598C9.83298 1.64726 8.33848 2.46357 6.99394 3.46915C6.0974 4.13953 5.26763 4.89392 4.51594 5.72099C3.76425 6.54807 3.09117 7.4473 2.50775 8.40738C2.4006 8.58372 2.2999 8.76411 2.19894 8.94449H21.2791L21.3159 12.3909C21.3159 21.7499 20.2937 28.3038 18.0989 33.0304C17.7871 33.7019 17.4552 34.3249 17.1087 34.9156C17.2199 34.9177 17.33 34.9239 17.4417 34.9239C27.0856 34.9239 34.9037 27.106 34.9037 17.4621C34.9037 16.8593 34.8731 16.2638 34.8136 15.6766" fill="var(--fill-0, white)"/>
<path id="Fill 7" fill-rule="evenodd" clip-rule="evenodd" d="M31.7938 33.1821C31.856 33.2511 31.9553 33.3119 32.0837 33.3119C32.2329 33.3119 32.2854 33.236 32.2854 33.1695C32.2854 33.0731 32.1804 33.0454 32.063 33.0149C31.9155 32.9762 31.744 32.9336 31.744 32.746C31.744 32.5939 31.8781 32.4835 32.07 32.4835C32.2122 32.4835 32.3239 32.529 32.4055 32.6119L32.3252 32.7142C32.255 32.6394 32.1583 32.6062 32.059 32.6062C31.9567 32.6062 31.8861 32.659 31.8861 32.7363C31.8861 32.8189 31.9857 32.8453 32.1004 32.8741C32.2509 32.9142 32.4262 32.9614 32.4262 33.1571C32.4262 33.3006 32.3266 33.4347 32.0784 33.4347C31.9139 33.4347 31.7938 33.3754 31.7152 33.2885L31.7938 33.1821Z" fill="var(--fill-0, white)"/>
<path id="Fill 9" fill-rule="evenodd" clip-rule="evenodd" d="M33.4477 32.6865L33.1494 33.4183H33.0915L32.7932 32.6865V33.4183H32.6553V32.4973H32.8527L33.1206 33.1588L33.3882 32.4973H33.5858V33.4183H33.4477V32.6865Z" fill="var(--fill-0, white)"/>
<path id="Fill 11" fill-rule="evenodd" clip-rule="evenodd" d="M42.289 7.11695C42.8849 7.75153 43.8177 8.30911 45.0223 8.30911C46.2659 8.30911 46.7583 7.69984 46.7583 7.13015C46.7583 6.35234 45.8383 6.11918 44.7891 5.84753C43.3773 5.49753 41.7191 5.08318 41.7191 3.25645C41.7191 1.83168 42.9756 0.730262 44.8669 0.730262C46.2142 0.730262 47.3024 1.1578 48.1055 1.93534L47.2375 3.06234C46.5639 2.38845 45.6442 2.07749 44.7374 2.07749C43.8436 2.07749 43.2734 2.50503 43.2734 3.1528C43.2734 3.82615 44.1543 4.04665 45.1776 4.30565C46.6027 4.66884 48.2996 5.10876 48.2996 6.98718C48.2996 8.42488 47.2892 9.6558 44.9574 9.6558C43.3644 9.6558 42.2112 9.09876 41.4472 8.28272L42.289 7.11695Z" fill="var(--fill-0, white)"/>
<path id="Fill 13" fill-rule="evenodd" clip-rule="evenodd" d="M51.9543 2.19431H49.3376V0.860273H56.0867V2.19431H53.4698V9.50043H51.9543V2.19431Z" fill="var(--fill-0, white)"/>
<path id="Fill 15" fill-rule="evenodd" clip-rule="evenodd" d="M61.2828 2.19431H59.21V4.9402H61.2828C62.1376 4.9402 62.7595 4.39689 62.7595 3.56739C62.7595 2.73843 62.1376 2.19431 61.2828 2.19431V2.19431ZM60.7126 6.27504H59.21V9.50043H57.6942V0.860273H61.4901C63.2 0.860273 64.3141 1.97408 64.3141 3.56739C64.3141 5.10873 63.3034 5.93797 62.2671 6.1065L64.3787 9.50043H62.63L60.7126 6.27504Z" fill="var(--fill-0, white)"/>
<path id="Fill 17" fill-rule="evenodd" clip-rule="evenodd" d="M67.9688 6.50779H71.2073L69.5879 2.14248L67.9688 6.50779ZM71.6349 7.8421H67.5412L66.9066 9.50029H65.2485L68.6424 0.860138H70.5335L73.9276 9.50029H72.2695L71.6349 7.8421Z" fill="var(--fill-0, white)"/>
<path id="Fill 19" fill-rule="evenodd" clip-rule="evenodd" d="M76.4164 2.19431H73.7995V0.860273H80.5486V2.19431H77.9319V9.50043H76.4164V2.19431Z" fill="var(--fill-0, white)"/>
<path id="Fill 21" fill-rule="evenodd" clip-rule="evenodd" d="M82.1566 0.860246H88.0765V2.19428H83.6721V4.43536H87.986V5.7694H83.6721V8.16609H88.0765V9.5004H82.1566V0.860246Z" fill="var(--fill-0, white)"/>
<path id="Fill 23" fill-rule="evenodd" clip-rule="evenodd" d="M94.1019 0.717204C95.786 0.717204 96.8868 1.52032 97.5863 2.51809L96.343 3.21782C95.8896 2.57005 95.073 2.06443 94.1019 2.06443C92.3918 2.06443 91.1223 3.37317 91.1223 5.18697C91.1223 7.00024 92.3918 8.32136 94.1019 8.32136C94.9826 8.32136 95.7601 7.90701 96.1486 7.54436V6.19713H93.5705V4.86282H97.6638V8.10113C96.809 9.04693 95.6042 9.66886 94.1019 9.66886C91.6016 9.66886 89.5678 7.89382 89.5678 5.18697C89.5678 2.47959 91.6016 0.717204 94.1019 0.717204" fill="var(--fill-0, white)"/>
<mask id="mask0_0_1178" style="mask-type:alpha" maskUnits="userSpaceOnUse" x="0" y="0" width="116" height="35">
<path id="Clip 26" fill-rule="evenodd" clip-rule="evenodd" d="M0 34.9241H115.467V0H0V34.9241Z" fill="var(--fill-0, white)"/>
</mask>
<g mask="url(#mask0_0_1178)">
<path id="Fill 25" fill-rule="evenodd" clip-rule="evenodd" d="M99.5702 9.50035H101.086V0.860192H99.5702V9.50035Z" fill="var(--fill-0, white)"/>
<path id="Fill 27" fill-rule="evenodd" clip-rule="evenodd" d="M102.861 5.18687C102.861 2.53144 104.843 0.717096 107.33 0.717096C109.144 0.717096 110.219 1.62413 110.867 2.6604L109.571 3.32137C109.157 2.60871 108.328 2.06433 107.33 2.06433C105.685 2.06433 104.416 3.37333 104.416 5.18687C104.416 7.00013 105.685 8.30913 107.33 8.30913C108.328 8.30913 109.157 7.77713 109.571 7.0521L110.867 7.71306C110.206 8.74879 109.144 9.65583 107.33 9.65583C104.843 9.65583 102.861 7.84202 102.861 5.18687" fill="var(--fill-0, white)"/>
<path id="Fill 28" fill-rule="evenodd" clip-rule="evenodd" d="M42.0039 13.1357H47.924V14.47H43.5197V16.7109H47.8333V18.0452H43.5197V20.4419H47.924V21.7759H42.0039V13.1357Z" fill="var(--fill-0, white)"/>
<path id="Fill 29" fill-rule="evenodd" clip-rule="evenodd" d="M53.0166 20.4418C54.8948 20.4418 55.983 19.0943 55.983 17.4625C55.983 15.7914 54.9467 14.47 53.0166 14.47H51.3196V20.4418H53.0166ZM49.8039 13.1357H53.0166C55.7108 13.1357 57.5375 14.9231 57.5375 17.4625C57.5375 20.001 55.7108 21.7758 53.0166 21.7758H49.8039V13.1357Z" fill="var(--fill-0, white)"/>
<path id="Fill 30" fill-rule="evenodd" clip-rule="evenodd" d="M59.327 13.1357H60.8554V18.3174C60.8554 19.6904 61.6197 20.5845 63.0706 20.5845C64.5086 20.5845 65.2727 19.6904 65.2727 18.3174V13.1357H66.8014V18.3561C66.8014 20.5065 65.5707 21.9312 63.0706 21.9312C60.5576 21.9312 59.327 20.4936 59.327 18.3691V13.1357Z" fill="var(--fill-0, white)"/>
<path id="Fill 31" fill-rule="evenodd" clip-rule="evenodd" d="M68.5778 17.4624C68.5778 14.8072 70.5599 12.9929 73.0471 12.9929C74.8606 12.9929 75.9359 13.8996 76.5837 14.9362L75.2882 15.5971C74.8738 14.8845 74.0446 14.3401 73.0471 14.3401C71.4021 14.3401 70.1324 15.6491 70.1324 17.4624C70.1324 19.2759 71.4021 20.5846 73.0471 20.5846C74.0446 20.5846 74.8738 20.0529 75.2882 19.3279L76.5837 19.9886C75.923 21.0246 74.8606 21.9313 73.0471 21.9313C70.5599 21.9313 68.5778 20.1178 68.5778 17.4624" fill="var(--fill-0, white)"/>
<path id="Fill 32" fill-rule="evenodd" clip-rule="evenodd" d="M79.8759 18.7836H83.1145L81.4951 14.4182L79.8759 18.7836ZM83.542 20.1179H79.4484L78.8138 21.7758H77.1556L80.5495 13.1356H82.4409L85.8348 21.7758H84.1766L83.542 20.1179Z" fill="var(--fill-0, white)"/>
<path id="Fill 33" fill-rule="evenodd" clip-rule="evenodd" d="M88.3236 14.4701H85.7067V13.1358H92.456V14.4701H89.8391V21.7759H88.3236V14.4701Z" fill="var(--fill-0, white)"/>
<path id="Fill 34" fill-rule="evenodd" clip-rule="evenodd" d="M94.0638 21.7759H95.5793V13.1358H94.0638V21.7759Z" fill="var(--fill-0, white)"/>
<path id="Fill 35" fill-rule="evenodd" clip-rule="evenodd" d="M101.772 14.3402C100.023 14.3402 98.9089 15.6745 98.9089 17.4624C98.9089 19.2372 100.023 20.5844 101.772 20.5844C103.508 20.5844 104.635 19.2372 104.635 17.4624C104.635 15.6745 103.508 14.3402 101.772 14.3402M101.772 12.9929C104.363 12.9929 106.189 14.8843 106.189 17.4624C106.189 20.0403 104.363 21.9311 101.772 21.9311C99.1811 21.9311 97.3544 20.0403 97.3544 17.4624C97.3544 14.8843 99.1811 12.9929 101.772 12.9929" fill="var(--fill-0, white)"/>
<path id="Fill 36" fill-rule="evenodd" clip-rule="evenodd" d="M109.495 15.4805V21.7759H107.979V13.1357H109.534L113.951 19.2629V13.1357H115.467V21.7759H114.003L109.495 15.4805Z" fill="var(--fill-0, white)"/>
<path id="Fill 37" fill-rule="evenodd" clip-rule="evenodd" d="M42.004 34.0518H43.5198V25.4108H42.004V34.0518Z" fill="var(--fill-0, white)"/>
<path id="Fill 38" fill-rule="evenodd" clip-rule="evenodd" d="M47.1991 27.7555V34.0517H45.6836V25.4107H47.2381L51.6554 31.5387V25.4107H53.1709V34.0517H51.7074L47.1991 27.7555Z" fill="var(--fill-0, white)"/>
<path id="Fill 39" fill-rule="evenodd" clip-rule="evenodd" d="M54.9474 29.7373C54.9474 27.0822 56.9294 25.2684 59.4169 25.2684C61.2304 25.2684 62.3057 26.1754 62.9529 27.212L61.6577 27.8721C61.2431 27.1603 60.4141 26.6159 59.4169 26.6159C57.7713 26.6159 56.5019 27.9241 56.5019 29.7373C56.5019 31.5509 57.7713 32.8596 59.4169 32.8596C60.4141 32.8596 61.2431 32.3287 61.6577 31.6034L62.9529 32.2638C62.2925 33.3001 61.2304 34.2071 59.4169 34.2071C56.9294 34.2071 54.9474 32.3933 54.9474 29.7373" fill="var(--fill-0, white)"/>
</g>
</g>
</svg>
