<svg preserveAspectRatio="xMidYMid meet" width="165" height="36" overflow="visible" style="display: block;" viewBox="0 0 165 36" fill="none" xmlns="http://www.w3.org/2000/svg">
<g id="Layer_1-2">
<path id="Vector" d="M7.08023 0C5.19233 0 3.41417 0.697578 2.07743 1.97315C0.738199 3.24623 0 4.93785 0 6.73661C0 9.80097 2.62111 12.2948 5.84325 12.2948C8.51672 12.2948 10.6889 10.227 10.6889 7.68332C10.6889 5.55571 8.87086 3.82173 6.63631 3.82173C5.72354 3.82173 5.43674 4.42713 5.53151 4.83322C5.63376 5.26671 6.16247 5.5009 6.63631 5.5009C7.89823 5.5009 8.92822 6.48 8.92822 7.68332C8.92822 9.30021 7.54659 10.6206 5.84574 10.6206C3.59623 10.6206 1.76569 8.87668 1.76569 6.7391C1.76569 5.38879 2.31934 4.1182 3.32439 3.16152C4.32944 2.20484 5.66368 1.6991 7.08023 1.6991L27.0241 1.70907V12.2948C27.0241 21.1665 22.3106 29.2684 14.4074 33.992C6.86575 29.4801 2.459 21.9787 2.05499 13.5803C1.94525 12.7283 0.615997 12.6336 0.35663 13.4558C0.740693 23.0475 5.11004 30.0357 13.5694 35.5067L14.4074 36L15.2478 35.5067C23.7471 30.4767 28.8197 21.7993 28.8197 12.2948V0H7.08023Z" fill="var(--fill-0, white)"/>
<path id="Vector_2" d="M14.2951 32.5669V7.47405C14.2951 7.01315 13.8986 6.63446 13.4123 6.63446C12.926 6.63446 12.5294 7.01315 12.5294 7.47405C12.5294 7.47405 12.5244 30.5091 12.517 31.3262C12.517 31.3412 12.5195 31.3536 12.5269 31.3611C12.5644 31.4035 12.7713 31.5654 12.911 31.6725C13.5619 32.1683 14.1305 32.5196 14.2677 32.5943C14.2852 32.6043 14.2926 32.5943 14.2926 32.5669H14.2951Z" fill="var(--fill-0, white)"/>
<path id="Vector_3" d="M17.8016 30.093V7.45661C17.8016 6.99571 17.405 6.61952 16.9212 6.61952C16.4374 6.61952 16.0359 6.99571 16.0359 7.45661V31.5355C16.0359 31.5355 16.0359 31.548 16.0434 31.5554C16.0508 31.5679 16.0683 31.5754 16.0907 31.5604C16.1381 31.5305 17.4425 30.4393 17.5422 30.3546C17.642 30.2699 17.7317 30.1976 17.7866 30.1279C17.8016 30.1179 17.7991 30.0905 17.7991 30.0905L17.8016 30.093Z" fill="var(--fill-0, white)"/>
<path id="Vector_4" d="M21.318 26.341V7.47654C21.318 7.01066 20.924 6.63695 20.4352 6.63695C19.9463 6.63695 19.5523 7.01315 19.5523 7.47654V28.2768C19.5523 28.2768 19.5523 28.2918 19.5573 28.3017C19.5623 28.3117 19.5797 28.3192 19.6047 28.2967C19.7294 28.1846 20.0286 27.8458 20.1234 27.7437C20.2506 27.6066 21.106 26.6051 21.2881 26.4158C21.318 26.3859 21.318 26.3385 21.318 26.3385V26.341Z" fill="var(--fill-0, white)"/>
<path id="Vector_5" d="M24.8319 19.43V7.47654C24.8319 7.01066 24.4354 6.63695 23.9491 6.63695C23.4628 6.63695 23.0687 7.01315 23.0687 7.47654V23.2368C23.0687 23.2368 23.0837 23.3091 23.1211 23.2518C23.3081 22.9603 23.575 22.4321 24.0139 21.4704C24.2533 20.9473 24.7796 19.592 24.817 19.5023C24.8294 19.4699 24.8294 19.4275 24.8294 19.4275L24.8319 19.43Z" fill="var(--fill-0, white)"/>
<path id="Vector_6" d="M25.8594 3.41315H13.3998C12.911 3.41315 12.517 3.78934 12.517 4.25273C12.517 4.71612 12.911 5.09232 13.3998 5.09232H25.8619C25.9093 5.09232 25.9143 5.03502 25.9143 5.03502C25.9143 5.03502 25.9093 3.52277 25.9093 3.47294C25.9093 3.41564 25.8569 3.41564 25.8569 3.41564L25.8594 3.41315Z" fill="var(--fill-0, white)"/>
<path id="Vector_7" d="M48.4518 8.24388C45.2421 7.42173 44.4441 7.02561 44.4441 5.80484V5.75253C44.4441 4.85066 45.2671 4.13564 46.8333 4.13564C48.3994 4.13564 50.018 4.82574 51.6615 5.96429L53.7838 2.88997C51.9009 1.38021 49.5915 0.530657 46.8856 0.530657C43.0899 0.530657 40.384 2.75792 40.384 6.12374V6.17606C40.384 9.86076 42.7981 10.8947 46.539 11.8489C49.6439 12.6436 50.2799 13.1743 50.2799 14.2082V14.2605C50.2799 15.3467 49.2723 16.0094 47.5989 16.0094C45.4766 16.0094 43.7258 15.1349 42.0524 13.7572L39.6383 16.6472C41.8679 18.6353 44.7059 19.6169 47.5191 19.6169C51.5268 19.6169 54.3375 17.5491 54.3375 13.8644V13.812C54.3375 10.5783 52.2151 9.22547 48.4468 8.24637L48.4518 8.24388Z" fill="var(--fill-0, white)"/>
<path id="Vector_8" d="M71.6627 0.79474H56.2702V4.55917H61.9239V19.3503H66.009V4.55917H71.6627V0.79474Z" fill="var(--fill-0, white)"/>
<path id="Vector_9" d="M91.0778 19.3503L86.5414 12.7233C88.9031 11.8489 90.5217 9.9654 90.5217 6.9708V6.91848C90.5217 5.16955 89.9655 3.71211 88.9306 2.6782C87.711 1.45993 85.878 0.797232 83.5163 0.797232H75.0245V19.3528H79.112V13.4159H82.3217L86.302 19.3528H91.0778V19.3503ZM83.2494 9.80844H79.1095V4.47945H83.1696C85.1598 4.47945 86.3818 5.38132 86.3818 7.13024V7.18256C86.3818 8.74713 85.2396 9.80595 83.2494 9.80595V9.80844Z" fill="var(--fill-0, white)"/>
<path id="Vector_10" d="M100.876 0.662699L92.9158 19.3503H97.0832L98.7815 15.1898H106.635L108.333 19.3503H112.605L104.645 0.662699H100.876ZM100.24 11.5848L102.709 5.56817L105.178 11.5848H100.243H100.24Z" fill="var(--fill-0, white)"/>
<path id="Vector_11" d="M119.583 8.24388L115.152 0.79474H110.376L117.513 12.0357V19.3503H121.601V11.956L128.738 0.79474H124.095L119.583 8.24388Z" fill="var(--fill-0, white)"/>
<path id="Vector_12" d="M145.286 15.7204H135.203V11.8215H143.959V8.19156H135.203V4.42713H145.153V0.79474H131.143V19.3503H145.286V15.7204Z" fill="var(--fill-0, white)"/>
<path id="Vector_13" d="M160.464 12.7233C162.825 11.8489 164.444 9.9654 164.444 6.9708V6.91848C164.444 5.16955 163.888 3.71211 162.853 2.6782C161.633 1.45993 159.8 0.797232 157.438 0.797232H148.947V19.3528H153.034V13.4159H156.244L160.224 19.3528H165L160.464 12.7258V12.7233ZM160.154 7.18505C160.154 8.74962 159.012 9.80844 157.024 9.80844H152.885V4.47945H156.945C158.935 4.47945 160.154 5.38132 160.154 7.13024V7.18256V7.18505Z" fill="var(--fill-0, white)"/>
<path id="Vector_14" d="M151.209 28.1871C151.209 27.9654 151.146 27.806 150.954 27.7412C150.859 27.7088 150.7 27.6764 150.478 27.6764H149.904V29.3929H150.191V28.7253H150.413C150.573 28.7253 150.667 28.7576 150.732 28.79C150.827 28.8548 150.892 28.9819 150.892 29.1712V29.4253H151.179V29.0442C151.179 28.9794 151.146 28.8847 151.084 28.79C151.019 28.6954 150.924 28.663 150.797 28.6306C150.924 28.5982 150.989 28.5658 151.052 28.5359C151.146 28.4412 151.211 28.3441 151.211 28.1871H151.209ZM150.765 28.4412C150.7 28.4736 150.605 28.4736 150.478 28.4736H150.191V27.8707H150.446C150.605 27.8707 150.732 27.9031 150.795 27.9355C150.859 27.9679 150.922 28.0626 150.954 28.1896C150.954 28.3167 150.889 28.4113 150.762 28.4437L150.765 28.4412Z" fill="var(--fill-0, white)"/>
<path id="Vector_15" d="M151.593 27.4248C151.273 27.1383 150.924 26.9788 150.478 26.9788C150.064 26.9788 149.682 27.1383 149.396 27.4248C149.109 27.7113 148.949 28.0925 148.949 28.506C148.949 28.952 149.109 29.3008 149.396 29.6197C149.682 29.9062 150.032 30.0656 150.478 30.0656C150.924 30.0656 151.273 29.9385 151.593 29.6197C151.912 29.3008 152.069 28.952 152.039 28.506C152.039 28.0925 151.912 27.7113 151.593 27.4248ZM151.466 29.4901C151.211 29.7442 150.892 29.8713 150.51 29.8713C150.129 29.8713 149.81 29.7442 149.555 29.4901C149.301 29.236 149.174 28.9171 149.174 28.5359C149.174 28.1547 149.301 27.8358 149.555 27.5817C149.81 27.3276 150.129 27.1682 150.51 27.2006C150.892 27.2006 151.211 27.3276 151.466 27.5817C151.72 27.8682 151.847 28.1547 151.847 28.5359C151.847 28.9171 151.72 29.236 151.466 29.4901Z" fill="var(--fill-0, white)"/>
<path id="Vector_16" d="M62.7569 31.097C62.7569 32.3851 62.086 33.0353 60.9962 33.0353C59.9064 33.0353 59.228 32.3452 59.228 31.0472V27.0735H57.9985V31.097C57.9985 33.125 59.1582 34.1738 60.9787 34.1738C62.7993 34.1738 63.9889 33.125 63.9889 31.0372V27.0735H62.7594V31.097H62.7569Z" fill="var(--fill-0, white)"/>
<path id="Vector_17" d="M73.2638 31.9067L69.5154 27.0735H68.3757V34.0642H69.5853V29.089L73.4458 34.0642H74.4733V27.0735H73.2638V31.9067Z" fill="var(--fill-0, white)"/>
<path id="Vector_18" d="M80.4737 27.0735H79.2442V34.0642H80.4737V27.0735Z" fill="var(--fill-0, white)"/>
<path id="Vector_19" d="M88.1126 32.4448L86.0027 27.0735H84.6435L87.5415 34.114H88.6413L91.5417 27.0735H90.2124L88.1126 32.4448Z" fill="var(--fill-0, white)"/>
<path id="Vector_20" d="M96.8712 31.097H100.38V29.9884H96.8712V28.1722H100.829V27.0735H95.6417V34.0642H100.879V32.9655H96.8712V31.097Z" fill="var(--fill-0, white)"/>
<path id="Vector_21" d="M110.957 29.3008V29.2808C110.957 28.6704 110.747 28.1522 110.376 27.7736C109.927 27.3351 109.236 27.0735 108.356 27.0735H105.236V34.0642H106.465V31.6277H108.004L109.722 34.0642H111.181L109.291 31.4184C110.261 31.1394 110.949 30.4493 110.949 29.3008H110.957ZM106.468 30.539V28.1921H108.256C109.166 28.1921 109.705 28.6007 109.705 29.3506V29.3705C109.705 30.0806 109.146 30.539 108.266 30.539H106.468Z" fill="var(--fill-0, white)"/>
<path id="Vector_22" d="M118.077 30.0083C116.728 29.6894 116.409 29.4478 116.409 28.9096V28.8897C116.409 28.4313 116.828 28.0601 117.548 28.0601C118.189 28.0601 118.818 28.3092 119.449 28.7801L120.11 27.8508C119.399 27.2803 118.591 26.9713 117.571 26.9713C116.182 26.9713 115.182 27.801 115.182 28.9993V29.0192C115.182 30.3073 116.022 30.7457 117.511 31.107C118.81 31.406 119.089 31.6775 119.089 32.1758V32.1957C119.089 32.7139 118.611 33.0752 117.85 33.0752C116.99 33.0752 116.311 32.7463 115.64 32.1658L114.9 33.0453C115.74 33.7952 116.75 34.1639 117.82 34.1639C119.289 34.1639 120.319 33.3841 120.319 32.0761V32.0562C120.319 30.8977 119.558 30.3695 118.079 30.0083H118.077Z" fill="var(--fill-0, white)"/>
<path id="Vector_23" d="M125.965 27.0735H124.736V34.0642H125.965V27.0735Z" fill="var(--fill-0, white)"/>
<path id="Vector_24" d="M130.215 28.212H132.444V34.0642H133.674V28.212H135.903V27.0735H130.215V28.212Z" fill="var(--fill-0, white)"/>
<path id="Vector_25" d="M142.772 30.1578L140.821 27.0735H139.363L142.143 31.3063V34.0642H143.383V31.2764L146.161 27.0735H144.752L142.772 30.1578Z" fill="var(--fill-0, white)"/>
</g>
</svg>
