<svg preserveAspectRatio="none" width="100%" height="100%" overflow="visible" style="display: block;" viewBox="0 0 31.4562 35" fill="none" xmlns="http://www.w3.org/2000/svg">
<g id="Logo Group">
<path id="Vector" d="M12.35 34.0069L13.9967 35L15.6434 34.0069C22.7143 29.7197 27.17 22.5986 27.8723 14.654H25.6929C24.9906 21.872 20.8982 28.3149 14.481 32.2145L13.9725 32.5052L13.4882 32.2145C6.39295 27.9031 2.1552 20.5156 2.1552 12.3772V2.10727H25.7897V3.9481H27.9449V0H0V12.3772C0 21.218 4.60099 29.308 12.35 33.9827V34.0069Z" fill="var(--fill-0, white)"/>
<path id="Vector_2" d="M19.9294 17.6354V17.3932H18.4765V17.6354C18.4765 18.7496 17.6047 20.8327 14.263 20.8327C13.1975 20.8327 12.1804 20.2271 11.4297 19.1614C10.7033 18.1199 10.2674 16.715 10.2674 15.3344C10.2674 14.3898 10.5095 12.9365 11.2118 11.7012C11.7203 10.7808 12.6889 9.71502 14.263 9.71502C15.837 9.71502 17.0478 10.4174 17.9195 11.8223C18.5734 12.888 18.7429 13.978 18.7671 14.0022V14.196C18.7913 14.196 19.9052 14.196 19.9052 14.196V8.77038H18.8155V8.96415C18.7913 8.96415 18.6944 9.44858 18.3554 9.83613C17.1689 8.74616 15.7159 8.14062 14.2145 8.14062C12.3015 8.14062 10.4853 8.89149 9.12923 10.2479C7.77315 11.6043 7.02246 13.3967 7.02246 15.3102C7.02246 19.2583 10.2432 22.4555 14.2145 22.4555C16.3455 22.4555 19.9779 21.4382 19.9779 17.6112L19.9294 17.6354Z" fill="var(--fill-0, white)"/>
<path id="Vector_3" d="M26.8794 4.8211C26.7826 6.05639 26.3467 7.12213 25.4507 7.99411C24.5789 8.86608 23.4892 9.30207 22.3511 9.35051C22.5932 9.39895 22.9323 9.42317 23.2713 9.49584C23.5861 9.59272 23.9251 9.68961 24.2157 9.83494C24.5063 9.98027 24.7969 10.174 25.0632 10.3678C25.3296 10.5858 25.5718 10.8038 25.7897 11.0702C26.0076 11.3367 26.2014 11.6273 26.3467 11.918C26.492 12.2086 26.613 12.5477 26.7099 12.8626C26.8068 13.1775 26.831 13.5166 26.8794 13.8073C27.0005 11.5547 28.8651 9.42317 31.4562 9.32629C28.8409 9.25362 26.9521 7.09791 26.8552 4.79688L26.8794 4.8211Z" fill="var(--fill-0, white)"/>
</g>
</svg>
