<svg preserveAspectRatio="none" width="100%" height="100%" overflow="visible" style="display: block;" viewBox="0 0 127.036 32.918" fill="none" xmlns="http://www.w3.org/2000/svg">
<g id="Logo Group">
<path id="Vector" d="M110.375 27.079C110.375 26.861 110.303 26.7156 110.133 26.643C110.036 26.6188 109.891 26.5703 109.673 26.5703H109.116V28.2416H109.383V27.5876H109.601C109.746 27.5876 109.843 27.6118 109.915 27.6603C110.012 27.7329 110.061 27.854 110.061 28.0236V28.2658H110.327V27.9025C110.327 27.8298 110.303 27.7572 110.23 27.6603C110.157 27.5634 110.085 27.5392 109.964 27.5149C110.085 27.4907 110.157 27.4423 110.206 27.4181C110.303 27.3212 110.351 27.2243 110.351 27.079H110.375ZM109.94 27.3212C109.867 27.3454 109.794 27.3454 109.673 27.3454H109.407V26.7641H109.649C109.794 26.7641 109.915 26.7883 109.988 26.8367C110.061 26.861 110.109 26.9579 110.133 27.079C110.133 27.2001 110.061 27.297 109.94 27.3212Z" fill="var(--fill-0, white)"/>
<path id="Vector_2" d="M110.739 26.354C110.424 26.0875 110.085 25.918 109.649 25.918C109.213 25.918 108.874 26.0633 108.608 26.354C108.341 26.6204 108.172 27.0079 108.172 27.3955C108.172 27.783 108.317 28.1706 108.608 28.4854C108.874 28.7519 109.237 28.9214 109.649 28.9214C110.061 28.9214 110.424 28.8003 110.739 28.4854C111.054 28.1706 111.199 27.8315 111.175 27.3955C111.175 26.9837 111.054 26.6204 110.739 26.354ZM110.618 28.3401C110.376 28.5823 110.061 28.7034 109.697 28.7034C109.334 28.7034 109.019 28.5823 108.777 28.3401C108.535 28.0979 108.414 27.783 108.414 27.4197C108.414 27.0564 108.535 26.7415 108.777 26.4993C109.019 26.2571 109.334 26.0875 109.697 26.136C110.061 26.136 110.376 26.2571 110.618 26.4993C110.86 26.7657 110.981 27.0564 110.981 27.4197C110.981 27.783 110.86 28.0979 110.618 28.3401Z" fill="var(--fill-0, white)"/>
<path id="Vector_3" d="M24.4821 29.9122C24.4821 31.1717 23.8283 31.8014 22.7628 31.8014C21.6973 31.8014 21.0435 31.1232 21.0435 29.8637V25.9883H19.8569V29.9122C19.8569 31.8741 20.9709 32.8914 22.7386 32.8914C24.5064 32.8914 25.6687 31.8741 25.6687 29.8395V25.9883H24.4821V29.9122Z" fill="var(--fill-0, white)"/>
<path id="Vector_4" d="M34.6769 30.6872L31.0446 25.9883H29.9307V32.7945H31.1172V27.9502L34.8707 32.7945H35.8635V25.9883H34.6769V30.6872Z" fill="var(--fill-0, white)"/>
<path id="Vector_5" d="M41.6753 25.9883H40.4888V32.7945H41.6753V25.9883Z" fill="var(--fill-0, white)"/>
<path id="Vector_6" d="M49.1091 31.2201L47.0508 25.9883H45.7432L48.5522 32.843H49.6177L52.4267 25.9883H51.1433L49.1091 31.2201Z" fill="var(--fill-0, white)"/>
<path id="Vector_7" d="M57.6094 29.9122H61.0238V28.8222H57.6094V27.0782H61.4597V25.9883H56.4229V32.7945H61.5082V31.7288H57.6094V29.9122Z" fill="var(--fill-0, white)"/>
<path id="Vector_8" d="M71.291 28.1713C71.291 27.5658 71.0973 27.0571 70.734 26.6938C70.2982 26.2578 69.6201 26.0156 68.7726 26.0156H65.7456V32.8219H66.9322V30.4482H68.4335L70.1044 32.8219H71.5332L69.6928 30.2544C70.6372 29.9879 71.3152 29.3097 71.3152 28.1956L71.291 28.1713ZM66.9322 29.3824V27.1056H68.6757C69.5475 27.1056 70.0802 27.4931 70.0802 28.244C70.0802 28.9464 69.5475 29.4066 68.6757 29.4066H66.9322V29.3824Z" fill="var(--fill-0, white)"/>
<path id="Vector_9" d="M78.1925 28.8488C76.8848 28.5339 76.57 28.3159 76.57 27.783C76.57 27.3228 76.9817 26.9595 77.6839 26.9595C78.3862 26.9595 78.9189 27.2017 79.5243 27.6619L80.154 26.7657C79.4759 26.2086 78.6768 25.918 77.6839 25.918C76.6911 25.918 75.3592 26.7173 75.3592 27.8799C75.3592 29.1636 76.1826 29.5754 77.6113 29.9387C78.8705 30.2294 79.1369 30.4958 79.1369 30.9803C79.1369 31.5131 78.6768 31.8522 77.9261 31.8522C77.1754 31.8522 76.4247 31.5373 75.7709 30.9803L75.0444 31.828C75.8678 32.5546 76.8364 32.918 77.8777 32.918C78.9189 32.918 80.2992 32.1671 80.2992 30.8834C80.2992 29.745 79.5728 29.2121 78.1198 28.873L78.1925 28.8488Z" fill="var(--fill-0, white)"/>
<path id="Vector_10" d="M85.8448 25.9883H84.6582V32.7945H85.8448V25.9883Z" fill="var(--fill-0, white)"/>
<path id="Vector_11" d="M89.9854 27.1025H92.1406V32.7945H93.3513V27.1025H95.5065V25.9883H89.9854V27.1025Z" fill="var(--fill-0, white)"/>
<path id="Vector_12" d="M102.166 28.9917L100.278 25.9883H98.873L101.561 30.1059V32.7945H102.772V30.0817L105.46 25.9883H104.104L102.166 28.9917Z" fill="var(--fill-0, white)"/>
<path id="Vector_13" d="M35.4518 17.2457C35.1128 17.1488 34.8222 16.9792 34.5801 16.7612C34.3379 16.519 34.0957 16.1799 33.8778 15.7439C33.6599 15.308 33.3935 14.7024 33.0545 13.9273L27.5575 0.605536H25.8624L19.8327 15.6471C19.6874 15.9619 19.5421 16.2284 19.3968 16.4464C19.2515 16.6644 19.0578 16.8581 18.8641 16.9792C18.6461 17.1246 18.4282 17.2215 18.1618 17.2941C17.8954 17.3668 17.5806 17.4394 17.2174 17.4879V18.4083H23.5135V17.4879C22.8354 17.4879 22.3027 17.4394 21.9637 17.2941C21.6246 17.173 21.4551 16.8824 21.4551 16.4221C21.4551 15.7924 21.8184 14.6782 22.5448 13.0554H29.0347L29.5674 14.4118C29.7611 14.8962 29.9064 15.308 30.0033 15.6471C30.1001 15.9862 30.1728 16.2526 30.1728 16.4706C30.1728 16.8339 30.0033 17.0761 29.6885 17.1972C29.3737 17.3183 28.8409 17.391 28.1145 17.4152V18.3599H36.7837V17.4152C36.2509 17.3668 35.8393 17.2941 35.5003 17.2215L35.4518 17.2457ZM23.0292 11.699L25.7655 4.77163H25.8624L28.5019 11.699H23.0292Z" fill="var(--fill-0, white)"/>
<path id="Vector_14" d="M51.4345 2.03608C50.2479 1.21255 48.4802 0.800781 46.1554 0.800781H38.2127V1.7212C38.6728 1.74542 39.036 1.79386 39.3266 1.86653C39.6172 1.93919 39.8351 2.0603 39.9804 2.25407C40.1257 2.44784 40.2468 2.71428 40.2952 3.02915C40.3437 3.36826 40.3679 3.78002 40.3679 4.31289V14.8734C40.3679 15.4063 40.3437 15.8423 40.271 16.1814C40.1984 16.5205 40.1015 16.7869 39.932 16.9565C39.7625 17.1503 39.5203 17.2714 39.2055 17.344C38.9392 17.4167 38.6001 17.4409 38.1885 17.4651V18.3856H47.0757V17.4651C46.3492 17.4651 45.7922 17.4409 45.3563 17.3683C44.9204 17.2956 44.5814 17.1745 44.3393 16.9807C44.0971 16.7869 43.9276 16.4963 43.855 16.1572C43.7823 15.7939 43.7339 15.3337 43.7339 14.7523V10.7316H45.6954C48.1411 10.7316 50.0058 10.2956 51.2892 9.44784C52.5726 8.57587 53.2264 7.34057 53.2264 5.69351C53.2264 4.07068 52.6211 2.8596 51.4345 2.03608ZM48.3349 8.47898C47.6568 9.08452 46.5671 9.37517 45.0657 9.37517H43.5644V2.47206C43.5644 2.20563 43.7097 2.08452 43.976 2.08452H45.7438C46.9788 2.08452 47.899 2.3994 48.4802 3.02915C49.0613 3.65891 49.3519 4.53088 49.3519 5.66929C49.3519 6.95303 49.0129 7.87344 48.3107 8.47898H48.3349Z" fill="var(--fill-0, white)"/>
<path id="Vector_15" d="M71.2668 13.1779H70.3466C70.177 13.953 69.9833 14.607 69.7169 15.1157C69.4748 15.6243 69.16 16.0361 68.7483 16.3267C68.3609 16.6416 67.8523 16.8354 67.2469 16.9565C66.6415 17.0776 65.9151 17.1503 65.0433 17.1503C64.3168 17.1503 63.6872 17.1018 63.1787 17.0292C62.6702 16.9565 62.2585 16.8112 61.9679 16.5932C61.6531 16.3994 61.4352 16.1087 61.3141 15.7939C61.193 15.4548 61.1204 15.043 61.1204 14.5586V9.8596C62.089 9.8596 62.8639 9.88383 63.4209 9.93227C64.002 9.98071 64.4621 10.1018 64.7769 10.2956C65.116 10.4894 65.3581 10.7558 65.5034 11.1191C65.6487 11.4824 65.7698 11.9669 65.8667 12.5724H66.7142V5.88729H65.8667C65.794 6.51704 65.6729 7.00147 65.5518 7.3648C65.4065 7.72812 65.1886 8.01877 64.8496 8.18832C64.5106 8.3821 64.0505 8.5032 63.4693 8.57587C62.8639 8.64853 62.089 8.67275 61.0962 8.67275V2.8596C61.0962 2.49628 61.1446 2.25407 61.2414 2.15718C61.3383 2.0603 61.5805 2.01185 61.9679 2.01185H64.559C65.3823 2.01185 66.0604 2.0603 66.6173 2.15718C67.1743 2.25407 67.6344 2.42362 67.9734 2.69005C68.3367 2.93227 68.603 3.27137 68.7967 3.68313C68.9905 4.0949 69.1358 4.62777 69.2326 5.28175H70.2255L70.056 0.800781H55.5508V1.7212C56.0108 1.74542 56.3741 1.79386 56.6647 1.86653C56.9553 1.93919 57.1732 2.0603 57.3185 2.25407C57.4638 2.44784 57.5849 2.71428 57.6333 3.02916C57.6817 3.36826 57.7059 3.78002 57.7059 4.31289V14.8734C57.7059 15.4063 57.6817 15.8423 57.6091 16.1814C57.5364 16.5205 57.4396 16.7869 57.2701 16.9565C57.1006 17.1503 56.8584 17.2714 56.5436 17.344C56.2288 17.4167 55.8171 17.4651 55.3086 17.4894V18.4098H70.8793L71.2425 13.1779H71.2668Z" fill="var(--fill-0, white)"/>
<path id="Vector_16" d="M87.2493 15.1649C87.0072 15.6735 86.6682 16.0611 86.2807 16.376C85.869 16.6666 85.3847 16.8846 84.7793 16.9815C84.1739 17.0784 83.4475 17.151 82.5515 17.151C81.7524 17.151 81.0985 17.1026 80.5416 17.0299C80.0088 16.9573 79.573 16.7877 79.2582 16.5697C78.9433 16.3517 78.7012 16.0369 78.5801 15.6251C78.459 15.2133 78.3864 14.7047 78.3864 14.0507V4.48323C78.3864 3.90191 78.3864 3.4417 78.459 3.07838C78.5075 2.73928 78.6285 2.44862 78.7981 2.25485C78.9676 2.06108 79.2097 1.91575 79.5245 1.84309C79.8393 1.77042 80.251 1.72198 80.7837 1.69776V0.777344H72.8652V1.69776C73.3253 1.72198 73.6885 1.77042 73.9791 1.84309C74.2697 1.91575 74.4877 2.03686 74.6329 2.23063C74.7782 2.4244 74.8993 2.69084 74.9478 3.00572C74.9962 3.34482 75.0204 3.75658 75.0204 4.28945V14.85C75.0204 15.3829 74.9962 15.8189 74.9235 16.158C74.8509 16.4971 74.754 16.7635 74.5845 16.9331C74.415 17.1268 74.1729 17.2479 73.8581 17.3206C73.5432 17.3933 73.1316 17.4417 72.623 17.4659V18.3863H88.4359L88.7992 13.2029H87.8789C87.7094 14.0023 87.5157 14.6562 87.2493 15.1649Z" fill="var(--fill-0, white)"/>
<path id="Vector_17" d="M104.806 15.1375C104.564 15.6462 104.225 16.0337 103.837 16.3486C103.426 16.6393 102.941 16.8573 102.336 16.9542C101.731 17.051 101.004 17.1237 100.108 17.1237C99.309 17.1237 98.6552 17.0753 98.0982 17.0026C97.5655 16.9299 97.1296 16.7604 96.8148 16.5424C96.5 16.3244 96.2578 16.0095 96.1368 15.5978C96.0157 15.186 95.943 14.6773 95.943 14.0234V4.45588C95.943 3.87457 95.943 3.41436 96.0157 3.05104C96.0641 2.71194 96.1852 2.42128 96.3547 2.22751C96.5242 2.03374 96.7664 1.88841 97.0812 1.81574C97.396 1.74308 97.8076 1.69464 98.3404 1.67042V0.75H90.4218V1.67042C90.8819 1.69464 91.2452 1.74308 91.5358 1.81574C91.8264 1.88841 92.0443 2.00952 92.1896 2.20329C92.3349 2.39706 92.456 2.66349 92.5044 2.97837C92.5528 3.31747 92.5771 3.72924 92.5771 4.26211V14.8227C92.5771 15.3555 92.5528 15.7915 92.4802 16.1306C92.4075 16.4697 92.3107 16.7362 92.1412 16.9057C91.9717 17.0995 91.7295 17.2206 91.4147 17.2933C91.0999 17.3659 90.6882 17.4144 90.1797 17.4386V18.359H105.993L106.356 13.1756H105.436C105.266 13.9749 105.072 14.6289 104.806 15.1375Z" fill="var(--fill-0, white)"/>
<path id="Vector_18" d="M126.988 17.4159C126.479 17.3675 126.043 17.2948 125.704 17.2222C125.365 17.1253 125.099 16.9557 124.832 16.7377C124.59 16.4955 124.348 16.1564 124.13 15.7204C123.912 15.2845 123.646 14.6789 123.307 13.9038L117.81 0.582031H116.115L110.085 15.6236C109.94 15.9384 109.794 16.2049 109.649 16.4229C109.504 16.6409 109.31 16.8346 109.116 16.9557C108.898 17.1011 108.681 17.1979 108.414 17.2706C108.148 17.3433 107.833 17.4159 107.47 17.4644V18.3848H113.766V17.4644C113.088 17.4644 112.555 17.4159 112.216 17.2706C111.877 17.1495 111.707 16.8588 111.707 16.3986C111.707 15.7689 112.071 14.6547 112.797 13.0319H119.287L119.82 14.3883C120.013 14.8727 120.159 15.2845 120.256 15.6236C120.352 15.9627 120.425 16.2291 120.425 16.4471C120.425 16.8104 120.256 17.0526 119.941 17.1737C119.626 17.2948 119.093 17.3675 118.367 17.3917V18.3364H127.036V17.3917L126.988 17.4159ZM113.282 11.6755L116.018 4.74812H116.115L118.754 11.6755H113.282Z" fill="var(--fill-0, white)"/>
<path id="Vector_19" d="M9.66208 17.3183C6.29609 17.3183 3.8503 13.4429 3.8503 9.44637C3.8503 6.46713 5.49697 1.42907 9.63786 1.42907C15.1348 1.42907 16.1277 7.58132 16.1277 7.58132H17.0237V0.823529H16.1277C16.1277 0.823529 15.9824 1.76817 15.2075 2.44637C13.6092 0.871972 11.5993 0 9.51678 0C4.26197 0 0 4.23875 0 9.47059C0 14.6782 4.28619 18.9412 9.541 18.9412C12.5195 18.9412 17.0963 17.5121 17.0963 12.6194H15.7644C15.7644 14.2907 14.4568 17.3426 9.66208 17.3426V17.3183Z" fill="var(--fill-0, white)"/>
</g>
</svg>
