<svg preserveAspectRatio="none" width="100%" height="100%" overflow="visible" style="display: block;" viewBox="0 0 18 18.2569" fill="none" xmlns="http://www.w3.org/2000/svg">
<g id="instagram copy">
<path id="instagram" fill-rule="evenodd" clip-rule="evenodd" d="M15.966 15.4328C15.966 15.8319 15.6442 16.1586 15.2503 16.1586H2.71583C2.322 16.1586 2.00017 15.8319 2.00017 15.4328V7.72096H3.65338C3.50317 8.21703 3.42248 8.7427 3.42248 9.28693C3.42248 12.3238 5.92728 14.7853 9.01707 14.7853C12.1072 14.7853 14.6123 12.3238 14.6123 9.28693C14.6123 8.74301 14.5313 8.21735 14.3814 7.72096H15.9657H15.966V15.4328ZM9.01707 5.53615C11.0135 5.53615 12.6323 7.12668 12.6323 9.08894C12.6323 11.0512 11.0135 12.6417 9.01707 12.6417C7.02062 12.6417 5.40186 11.0512 5.40186 9.08894C5.40186 7.12668 7.02062 5.53615 9.01707 5.53615V5.53615ZM12.3021 2.85054C12.3021 2.39822 12.6664 2.02868 13.1124 2.02868H15.1467C15.5927 2.02868 15.957 2.39822 15.957 2.85054V4.81785C15.957 5.26986 15.5927 5.63971 15.1467 5.63971H13.1124C12.6664 5.63971 12.3021 5.26986 12.3021 4.81785V2.85054ZM15.6898 0H2.31021C1.03934 0 0 0.954378 0 2.34314V15.9138C0 17.3028 1.03934 18.2569 2.31021 18.2569H15.6898C16.9603 18.2569 18 17.3028 18 15.9138V2.34314C18 0.954378 16.9603 0 15.6898 0V0Z" fill="var(--fill-0, white)"/>
</g>
</svg>
