<svg preserveAspectRatio="none" width="100%" height="100%" overflow="visible" style="display: block;" viewBox="0 0 18.75 17.8472" fill="none" xmlns="http://www.w3.org/2000/svg">
<g id="linkedin copy">
<path id="linkedin" fill-rule="evenodd" clip-rule="evenodd" d="M14.1217 5.52288C11.9861 5.52288 11.0334 6.69281 10.5 7.51268V7.55073H10.4732C10.4812 7.53892 10.4919 7.52449 10.5 7.51268V5.80601H6.48136C6.53405 6.93427 6.48136 17.8472 6.48136 17.8472H10.5V11.1232C10.5 10.7626 10.5246 10.4034 10.6338 10.1462C10.9219 9.42636 11.5843 8.68228 12.6931 8.68228C14.1485 8.68228 14.731 9.78692 14.731 11.4053V17.8472H18.75V10.9424C18.75 7.24365 16.7657 5.52288 14.1217 5.52288V5.52288ZM0.237931 17.8472H4.2556V5.80634H0.237931V17.8472ZM4.5194 2.08133C4.5194 3.23683 3.64849 4.16135 2.24677 4.16135H2.21994C0.870905 4.16135 0 3.23683 0 2.08133C0 0.899592 0.897737 0 2.2736 0C3.64849 0 4.49483 0.899592 4.5194 2.08133V2.08133Z" fill="var(--fill-0, white)"/>
</g>
</svg>
