<svg preserveAspectRatio="none" width="100%" height="100%" overflow="visible" style="display: block;" viewBox="0 0 16.3086 18.44" fill="none" xmlns="http://www.w3.org/2000/svg">
<g id="youtube copy">
<path id="youtube" fill-rule="evenodd" clip-rule="evenodd" d="M14.6541 14.9488L13.8037 14.9532C13.8034 14.9847 13.8022 15.0216 13.8018 15.0613V15.5087C13.8018 15.7477 13.5919 15.9426 13.3371 15.9426H13.1705C12.9151 15.9426 12.7055 15.7477 12.7055 15.5087V15.4591V14.9672V14.3326H14.6525V13.6421C14.6525 13.1375 14.6386 12.633 14.5943 12.3446C14.455 11.4322 13.0955 11.2872 12.4088 11.7542C12.1932 11.9001 12.0286 12.0954 11.933 12.3577C11.8364 12.6203 11.7883 12.9789 11.7883 13.4342V14.9526C11.7886 17.4763 15.0422 17.1196 14.6541 14.9488V14.9488ZM11.1051 15.2861L11.1026 12.7401C11.1019 11.7698 10.3314 11.1886 9.28565 11.9739L9.2904 10.0809L8.15763 10.0825L8.15225 16.6163L9.08366 16.6036L9.16851 16.1967C10.3586 17.2255 11.107 16.5206 11.1051 15.2861V15.2861ZM7.47759 16.6573L7.47727 11.7832H6.34356V14.8423C6.34356 15.2848 6.37205 15.5061 6.34166 15.584C6.24953 15.8215 5.83511 16.0733 5.67333 15.6098C5.6461 15.5287 5.67017 15.2839 5.66985 14.8633L5.6651 11.7832H4.5374L4.54088 14.8149C4.54183 15.2798 4.5298 15.626 4.545 15.784C4.57254 16.0619 4.56273 16.3862 4.83658 16.5712C5.34661 16.9174 6.32456 16.5197 6.56929 16.0247L6.56707 16.6564L7.47759 16.6573ZM3.4002 16.6586L3.39925 10.9298L4.75965 10.9301V10.0813L1.13372 10.0762V10.9107L2.26553 10.9136V16.6586H3.4002ZM16.3086 10.6294V16.0682C16.3086 17.3727 15.1081 18.44 13.6407 18.44H2.66824C1.2002 18.44 0 17.3727 0 16.0682V10.6294C0 9.32491 1.2002 8.2573 2.66824 8.2573H13.6407C15.1081 8.2573 16.3086 9.32491 16.3086 10.6294V10.6294ZM9.76623 12.2286C9.49396 12.2286 9.27108 12.4012 9.27108 12.6123V15.4711C9.27108 15.6819 9.49396 15.8543 9.76623 15.8543C10.0398 15.8543 10.263 15.6819 10.263 15.4711V12.6123C10.263 12.4009 10.0398 12.2286 9.76623 12.2286V12.2286ZM3.9536 7.21925H5.14621L5.14747 3.33478L6.55662 0.00699448H5.25226L4.50321 2.47859L3.74339 0H2.45264L3.9517 3.33637L3.9536 7.21925ZM7.45195 5.85787C7.45195 6.14465 7.67863 6.37896 7.95438 6.37896C8.23076 6.37896 8.45649 6.14465 8.45649 5.85787V3.1615C8.45649 2.87505 8.23076 2.64105 7.95438 2.64105C7.67863 2.64105 7.45195 2.87505 7.45195 3.1615V5.85787ZM6.46196 3.84601C6.46196 3.35957 6.50502 2.97997 6.5905 2.70623C6.67661 2.43344 6.83111 2.21439 7.05526 2.04906C7.27845 1.88279 7.56434 1.79949 7.91195 1.79949C8.20448 1.79949 8.45491 1.85385 8.66418 1.95973C8.87439 2.06623 9.03681 2.20453 9.1492 2.37526C9.2638 2.54631 9.34168 2.72244 9.38316 2.90271C9.42558 3.0852 9.44648 3.36053 9.44648 3.73187V5.01281C9.44648 5.48272 9.42653 5.82831 9.38759 6.04768C9.34897 6.26769 9.26633 6.4718 9.13843 6.66319C9.01211 6.85268 8.84938 6.99416 8.65183 7.08445C8.45238 7.1757 8.2238 7.22053 7.96609 7.22053C7.67799 7.22053 7.43517 7.18301 7.23508 7.10448C7.03436 7.02691 6.87955 6.90927 6.76906 6.75349C6.6573 6.59738 6.57878 6.40726 6.53161 6.18534C6.48381 5.96406 6.46133 5.63087 6.46133 5.18672L6.46196 3.84601ZM13.8072 12.9004C13.8072 12.6393 13.579 12.4257 13.3 12.4257H13.2317C12.9534 12.4257 12.7257 12.6393 12.7257 12.9004L12.7207 13.4882H13.7949L13.8072 12.9004ZM10.1841 6.28454C10.1705 6.13734 10.162 5.84707 10.162 5.41214V1.99565H11.2007V5.93768C11.2007 6.15133 11.3878 6.32619 11.6145 6.32619C11.8428 6.32619 12.0292 6.15133 12.0292 5.93768V1.99565H13.0243V7.06093H11.7601L11.7817 6.64157C11.6952 6.81167 11.5895 6.93948 11.4638 7.025C11.3375 7.11084 11.1928 7.15249 11.0291 7.15249C10.8426 7.15249 10.6869 7.11179 10.5653 7.03104C10.4418 6.94901 10.351 6.8406 10.2924 6.70643C10.2342 6.57068 10.1984 6.43047 10.1841 6.28454V6.28454Z" fill="var(--fill-0, white)"/>
</g>
</svg>
